<svg xmlns="http://www.w3.org/2000/svg" viewBox="0 0 500 500"><g id="freepik--background-complete--inject-1"><rect y="382.4" width="500" height="0.25" style="fill:#ebebeb"></rect><rect x="416.78" y="398.49" width="33.12" height="0.25" style="fill:#ebebeb"></rect><rect x="322.53" y="401.21" width="8.69" height="0.25" style="fill:#ebebeb"></rect><rect x="396.59" y="389.21" width="19.19" height="0.25" style="fill:#ebebeb"></rect><rect x="52.46" y="390.89" width="43.19" height="0.25" style="fill:#ebebeb"></rect><rect x="104.56" y="390.89" width="6.33" height="0.25" style="fill:#ebebeb"></rect><rect x="131.47" y="395.11" width="93.68" height="0.25" style="fill:#ebebeb"></rect><path d="M237,337.8H43.91a5.71,5.71,0,0,1-5.7-5.71V60.66A5.71,5.71,0,0,1,43.91,55H237a5.71,5.71,0,0,1,5.71,5.71V332.09A5.71,5.71,0,0,1,237,337.8ZM43.91,55.2a5.46,5.46,0,0,0-5.45,5.46V332.09a5.46,5.46,0,0,0,5.45,5.46H237a5.47,5.47,0,0,0,5.46-5.46V60.66A5.47,5.47,0,0,0,237,55.2Z" style="fill:#ebebeb"></path><path d="M453.31,337.8H260.21a5.72,5.72,0,0,1-5.71-5.71V60.66A5.72,5.72,0,0,1,260.21,55h193.1A5.71,5.71,0,0,1,459,60.66V332.09A5.71,5.71,0,0,1,453.31,337.8ZM260.21,55.2a5.47,5.47,0,0,0-5.46,5.46V332.09a5.47,5.47,0,0,0,5.46,5.46h193.1a5.47,5.47,0,0,0,5.46-5.46V60.66a5.47,5.47,0,0,0-5.46-5.46Z" style="fill:#ebebeb"></path><rect x="171.23" y="151.51" width="33.37" height="22.73" style="fill:#e6e6e6"></rect><rect x="192.1" y="159.13" width="26.28" height="17.89" style="fill:#ebebeb"></rect><circle cx="151.29" cy="170.1" r="6.95" style="fill:#e6e6e6"></circle><rect x="119.97" y="141.89" width="1" height="29.96" transform="translate(-39.94 41.15) rotate(-16.67)" style="fill:#e0e0e0"></rect><rect x="106.87" y="155.71" width="31.55" height="1" transform="translate(-63.73 224.84) rotate(-72.08)" style="fill:#e0e0e0"></rect><rect x="120.82" y="138.81" width="1" height="33.54" transform="translate(-7.72 6.34) rotate(-2.9)" style="fill:#e0e0e0"></rect><rect x="115.6" y="159.67" width="13.13" height="15.86" style="fill:#ebebeb"></rect><rect x="68.88" y="174.24" width="164.52" height="208.33" transform="translate(302.29 556.81) rotate(180)" style="fill:#f0f0f0"></rect><rect x="74.7" y="181.83" width="152.89" height="44.55" transform="translate(302.29 408.21) rotate(180)" style="fill:#e0e0e0"></rect><rect x="218.9" y="189.04" width="8.68" height="37.34" transform="translate(446.49 415.42) rotate(180)" style="fill:#ebebeb"></rect><rect x="176.91" y="189.04" width="8.69" height="37.34" transform="translate(362.5 415.42) rotate(180)" style="fill:#ebebeb"></rect><rect x="126" y="188.58" width="8.69" height="37.34" transform="translate(223.59 433.61) rotate(-170.22)" style="fill:#ebebeb"></rect><rect x="208.14" y="193.96" width="8.69" height="32.42" transform="translate(424.97 420.34) rotate(180)" style="fill:#ebebeb"></rect><rect x="188.18" y="193.96" width="8.69" height="32.42" transform="translate(385.04 420.34) rotate(180)" style="fill:#ebebeb"></rect><rect x="137.79" y="193.96" width="8.69" height="32.42" transform="translate(284.26 420.34) rotate(180)" style="fill:#ebebeb"></rect><rect x="161.88" y="193.41" width="8.69" height="32.42" transform="translate(283.02 450.29) rotate(-167.47)" style="fill:#ebebeb"></rect><rect x="200.63" y="187.19" width="4.34" height="39.19" transform="translate(405.6 413.57) rotate(180)" style="fill:#ebebeb"></rect><rect x="148.97" y="187.19" width="4.34" height="39.19" transform="translate(302.29 413.57) rotate(180)" style="fill:#ebebeb"></rect><rect x="74.7" y="233.43" width="152.89" height="44.55" style="fill:#e0e0e0"></rect><rect x="74.7" y="240.65" width="8.69" height="37.34" style="fill:#ebebeb"></rect><rect x="116.69" y="240.65" width="8.69" height="37.34" style="fill:#ebebeb"></rect><rect x="167.6" y="240.18" width="8.69" height="37.34" transform="translate(-41.46 32.96) rotate(-9.78)" style="fill:#ebebeb"></rect><rect x="85.46" y="245.57" width="8.69" height="32.42" style="fill:#ebebeb"></rect><rect x="105.42" y="245.57" width="8.69" height="32.42" style="fill:#ebebeb"></rect><rect x="155.81" y="245.57" width="8.69" height="32.42" style="fill:#ebebeb"></rect><rect x="131.72" y="245.01" width="8.69" height="32.42" transform="translate(-53.42 35.73) rotate(-12.53)" style="fill:#ebebeb"></rect><rect x="97.31" y="238.79" width="4.34" height="39.19" style="fill:#ebebeb"></rect><rect x="148.97" y="238.79" width="4.34" height="39.19" style="fill:#ebebeb"></rect><rect x="218.9" y="240.65" width="8.68" height="37.34" transform="translate(446.49 518.63) rotate(180)" style="fill:#ebebeb"></rect><rect x="208.14" y="245.57" width="8.69" height="32.42" transform="translate(424.97 523.55) rotate(180)" style="fill:#ebebeb"></rect><rect x="188.18" y="245.57" width="8.69" height="32.42" transform="translate(385.04 523.55) rotate(180)" style="fill:#ebebeb"></rect><rect x="200.63" y="238.79" width="4.34" height="39.19" transform="translate(405.6 516.77) rotate(180)" style="fill:#ebebeb"></rect><rect x="74.7" y="285.04" width="152.89" height="44.55" transform="translate(302.29 614.62) rotate(180)" style="fill:#e0e0e0"></rect><rect x="131.15" y="292.25" width="8.69" height="37.34" transform="translate(270.98 621.83) rotate(180)" style="fill:#ebebeb"></rect><rect x="80.24" y="291.78" width="8.69" height="37.34" transform="translate(115.21 630.76) rotate(-170.22)" style="fill:#ebebeb"></rect><rect x="162.38" y="297.17" width="8.69" height="32.42" transform="translate(333.45 626.75) rotate(180)" style="fill:#ebebeb"></rect><rect x="142.42" y="297.17" width="8.69" height="32.42" transform="translate(293.53 626.75) rotate(180)" style="fill:#ebebeb"></rect><rect x="92.03" y="297.17" width="8.69" height="32.42" transform="translate(192.75 626.75) rotate(180)" style="fill:#ebebeb"></rect><rect x="116.12" y="296.61" width="8.69" height="32.42" transform="translate(170.2 644.32) rotate(-167.47)" style="fill:#ebebeb"></rect><rect x="154.87" y="290.39" width="4.34" height="39.19" transform="translate(314.09 619.98) rotate(180)" style="fill:#ebebeb"></rect><rect x="103.21" y="290.39" width="4.34" height="39.19" transform="translate(210.77 619.98) rotate(180)" style="fill:#ebebeb"></rect><rect x="180.16" y="291.78" width="8.69" height="37.34" transform="translate(313.6 647.73) rotate(-170.22)" style="fill:#ebebeb"></rect><rect x="191.95" y="297.17" width="8.69" height="32.42" transform="translate(392.59 626.75) rotate(180)" style="fill:#ebebeb"></rect><rect x="216.04" y="296.61" width="8.69" height="32.42" transform="translate(367.67 666) rotate(-167.47)" style="fill:#ebebeb"></rect><rect x="203.13" y="290.39" width="4.34" height="39.19" transform="translate(410.61 619.98) rotate(180)" style="fill:#ebebeb"></rect><path d="M94.36,145.43s4.89-5.82,8-3.11,1.54,8.47-2.07,8.66a9.09,9.09,0,0,1-6-1.82Z" style="fill:#ebebeb"></path><path d="M74.42,130.67s-4.11-4.3-6.65-3.57-2.28,11,5.6,6.84Z" style="fill:#f0f0f0"></path><path d="M89.08,162.76s13.49-18.46,2.54-22.2-12.9,14.85-9.77,20S89.08,162.76,89.08,162.76Z" style="fill:#f0f0f0"></path><path d="M82.82,125s-8.37-19.43,4-20,13.75,19.27-.52,22.15Z" style="fill:#f0f0f0"></path><path d="M85.79,140.88s4.07-17.16-3.75-18.53-15.54,14.14.64,21.93C82.68,144.28,85.45,142.56,85.79,140.88Z" style="fill:#ebebeb"></path><polygon points="98.79 160.14 76.14 160.14 78.03 174.63 96.9 174.63 98.79 160.14" style="fill:#e0e0e0"></polygon><path d="M87,123.58c3.4-3.57,6.3-8.33,5.57-13.42a5.7,5.7,0,0,0-.18-1.07c-.66-2.69,1,2.15.78,3.21,0,4.49-2.67,8.66-6.17,11.28Z" style="fill:#e0e0e0"></path><path d="M90,106.91c-4.87,1.81-6.92,7-6.82,11.81,0,.7.06,1.4,0,2.12-.14-.7-.24-1.4-.37-2.11-.61-5,1.75-10.74,7.14-11.82Z" style="fill:#e0e0e0"></path><path d="M80.5,123.58a8.41,8.41,0,0,0-4,9.56A19.36,19.36,0,0,0,81,140.25c.63.72,1.3,1.4,2,2.07a23.1,23.1,0,0,1-4.2-3.95,12.72,12.72,0,0,1-3.18-6.51c-.27-3.39,1.62-7.12,4.9-8.28Z" style="fill:#e0e0e0"></path><path d="M82.82,125c-.29,2.47-.88,5.41.34,7.65a7.37,7.37,0,0,1,1.09,3.94,14.89,14.89,0,0,1-.45,4c0-2.55.26-5.41-1.2-7.6-1.29-2.48-.6-5.48.22-8Z" style="fill:#e0e0e0"></path><path d="M88.33,142.32c-1.13.83-1.4,2.37-1.83,3.63A125.08,125.08,0,0,0,84,158.25c-.1-3.57,1.08-14.11,4.3-15.93Z" style="fill:#e0e0e0"></path><path d="M92.16,142.92A12,12,0,0,1,90.5,156a16.55,16.55,0,0,1-1.42,1.36,15.22,15.22,0,0,0,3.08-14.44Z" style="fill:#e0e0e0"></path><path d="M71.23,132.77c-1.4.59-3.47-.18-3.71-1.8a7.87,7.87,0,0,0,3.71,1.8Z" style="fill:#e0e0e0"></path><path d="M72.07,129.93c-1.35-.6-2.52-1.31-4-.73,1-1.52,3.31-.65,4,.73Z" style="fill:#e0e0e0"></path><path d="M96.59,146.29c.77-1.78,3.6-4,5.25-2-2.08-1-3.64.92-5.25,2Z" style="fill:#e0e0e0"></path><path d="M96.59,149.16c2.24-.26,5.24.27,6.43-2.07-.27,2.9-4.35,2.84-6.43,2.07Z" style="fill:#e0e0e0"></path></g><g id="freepik--Shadow--inject-1"><ellipse id="freepik--path--inject-1" cx="253.08" cy="416.24" rx="207.38" ry="11.32" style="fill:#f5f5f5"></ellipse></g><g id="freepik--Window--inject-1"><rect x="278.18" y="104.94" width="157.99" height="149.04" style="fill:#228BE6"></rect><rect x="278.18" y="104.94" width="157.99" height="149.04" style="fill:#fff;isolation:isolate;opacity:0.7000000000000001"></rect><rect x="281.28" y="107.79" width="154.89" height="143.05" style="fill:#263238"></rect><polygon points="287 198.56 287 186.55 290.43 186.55 290.43 178.54 295.01 178.54 295.01 166.52 296.15 166.52 296.15 178.54 300.73 178.54 300.73 186.55 304.17 186.55 304.17 198.56 310.46 198.56 310.46 202 313.32 202 313.32 215.16 313.89 215.16 313.89 196.28 315.61 196.28 315.61 208.29 317.32 208.29 317.32 179.68 318.47 179.68 318.47 191.7 323.05 191.7 323.05 187.69 324.76 187.69 324.76 171.1 328.2 171.1 328.2 154.51 329.34 154.51 329.34 156.8 352.8 156.8 352.8 149.93 356.81 149.93 356.81 123.61 358.52 123.61 358.52 149.93 364.24 149.93 364.24 156.8 366.53 156.8 366.53 191.13 378.55 191.13 378.55 180.83 374.54 180.83 374.54 179.11 378.55 179.11 378.55 176.25 389.99 176.25 389.99 149.93 392.85 149.93 392.85 145.92 406.58 145.92 406.58 149.93 408.3 149.93 408.3 186.55 414.59 186.55 414.59 203.14 418.03 203.14 418.03 189.98 420.89 189.98 420.89 186.55 427.18 186.55 427.18 174.53 430.61 174.53 430.61 166.52 434.62 166.52 434.62 154.51 436.17 154.51 436.17 250.84 281.28 250.84 281.28 198.56 287 198.56" style="fill:#fff;opacity:0.2"></polygon><g style="opacity:0.2"><rect x="342.42" y="158.59" width="1.62" height="1.62" style="fill:#fff"></rect><rect x="342.42" y="161.31" width="1.62" height="1.62" style="fill:#fff"></rect><rect x="342.42" y="172.18" width="1.62" height="1.62" style="fill:#fff"></rect><rect x="342.42" y="174.9" width="1.62" height="1.62" style="fill:#fff"></rect><rect x="342.42" y="177.61" width="1.62" height="1.62" style="fill:#fff"></rect><rect x="342.42" y="185.77" width="1.62" height="1.62" style="fill:#fff"></rect><rect x="342.42" y="188.49" width="1.62" height="1.62" style="fill:#fff"></rect><rect x="344.99" y="169.46" width="1.62" height="1.62" style="fill:#fff"></rect><rect x="344.99" y="172.18" width="1.62" height="1.62" style="fill:#fff"></rect><rect x="344.99" y="174.9" width="1.62" height="1.62" style="fill:#fff"></rect><rect x="344.99" y="177.61" width="1.62" height="1.62" style="fill:#fff"></rect><rect x="344.99" y="180.33" width="1.62" height="1.62" style="fill:#fff"></rect><rect x="344.99" y="185.77" width="1.62" height="1.62" style="fill:#fff"></rect><rect x="344.99" y="188.49" width="1.62" height="1.62" style="fill:#fff"></rect><rect x="347.57" y="158.59" width="1.62" height="1.62" style="fill:#fff"></rect><rect x="347.57" y="161.31" width="1.62" height="1.62" style="fill:#fff"></rect><rect x="347.57" y="164.03" width="1.62" height="1.62" style="fill:#fff"></rect><rect x="347.57" y="166.74" width="1.62" height="1.62" style="fill:#fff"></rect><rect x="347.57" y="169.46" width="1.62" height="1.62" style="fill:#fff"></rect><rect x="347.57" y="172.18" width="1.62" height="1.62" style="fill:#fff"></rect><rect x="347.57" y="174.9" width="1.62" height="1.62" style="fill:#fff"></rect><rect x="347.57" y="177.61" width="1.62" height="1.62" style="fill:#fff"></rect><rect x="347.57" y="180.33" width="1.62" height="1.62" style="fill:#fff"></rect><rect x="347.57" y="183.05" width="1.62" height="1.62" style="fill:#fff"></rect><rect x="347.57" y="188.49" width="1.62" height="1.62" style="fill:#fff"></rect><rect x="350.14" y="158.59" width="1.62" height="1.62" style="fill:#fff"></rect><rect x="350.14" y="161.31" width="1.62" height="1.62" style="fill:#fff"></rect><rect x="350.14" y="164.03" width="1.62" height="1.62" style="fill:#fff"></rect><rect x="350.14" y="166.74" width="1.62" height="1.62" style="fill:#fff"></rect><rect x="350.14" y="169.46" width="1.62" height="1.62" style="fill:#fff"></rect><rect x="350.14" y="172.18" width="1.62" height="1.62" style="fill:#fff"></rect><rect x="350.14" y="174.9" width="1.62" height="1.62" style="fill:#fff"></rect><rect x="350.14" y="199.36" width="1.62" height="1.62" style="fill:#fff"></rect><rect x="352.72" y="158.59" width="1.62" height="1.62" style="fill:#fff"></rect><rect x="352.72" y="161.31" width="1.62" height="1.62" style="fill:#fff"></rect><rect x="352.72" y="164.03" width="1.62" height="1.62" style="fill:#fff"></rect><rect x="352.72" y="166.74" width="1.62" height="1.62" style="fill:#fff"></rect><rect x="352.72" y="169.46" width="1.62" height="1.62" style="fill:#fff"></rect><rect x="352.72" y="172.18" width="1.62" height="1.62" style="fill:#fff"></rect><rect x="352.72" y="174.9" width="1.62" height="1.62" style="fill:#fff"></rect><rect x="352.72" y="177.61" width="1.62" height="1.62" style="fill:#fff"></rect><rect x="352.72" y="193.92" width="1.62" height="1.62" style="fill:#fff"></rect><rect x="352.72" y="196.64" width="1.62" height="1.62" style="fill:#fff"></rect><rect x="352.72" y="199.36" width="1.62" height="1.62" style="fill:#fff"></rect><rect x="352.72" y="202.07" width="1.62" height="1.62" style="fill:#fff"></rect><rect x="352.72" y="212.95" width="1.62" height="1.62" style="fill:#fff"></rect><rect x="355.29" y="158.59" width="1.62" height="1.62" style="fill:#fff"></rect><rect x="355.29" y="161.31" width="1.62" height="1.62" style="fill:#fff"></rect><rect x="355.29" y="164.03" width="1.62" height="1.62" style="fill:#fff"></rect><rect x="355.29" y="166.74" width="1.62" height="1.62" style="fill:#fff"></rect><rect x="355.29" y="169.46" width="1.62" height="1.62" style="fill:#fff"></rect><rect x="355.29" y="172.18" width="1.62" height="1.62" style="fill:#fff"></rect><rect x="355.29" y="174.9" width="1.62" height="1.62" style="fill:#fff"></rect><rect x="355.29" y="177.61" width="1.62" height="1.62" style="fill:#fff"></rect><rect x="355.29" y="180.33" width="1.62" height="1.62" style="fill:#fff"></rect><rect x="355.29" y="183.05" width="1.62" height="1.62" style="fill:#fff"></rect><rect x="355.29" y="191.2" width="1.62" height="1.62" style="fill:#fff"></rect><rect x="355.29" y="193.92" width="1.62" height="1.62" style="fill:#fff"></rect><rect x="355.29" y="196.64" width="1.62" height="1.62" style="fill:#fff"></rect><rect x="355.29" y="199.36" width="1.62" height="1.62" style="fill:#fff"></rect><rect x="355.29" y="202.07" width="1.62" height="1.62" style="fill:#fff"></rect><rect x="355.29" y="212.95" width="1.62" height="1.62" style="fill:#fff"></rect><rect x="357.87" y="158.59" width="1.62" height="1.62" style="fill:#fff"></rect><rect x="357.87" y="161.31" width="1.62" height="1.62" style="fill:#fff"></rect><rect x="357.87" y="164.03" width="1.62" height="1.62" style="fill:#fff"></rect><rect x="357.87" y="166.74" width="1.62" height="1.62" style="fill:#fff"></rect><rect x="357.87" y="169.46" width="1.62" height="1.62" style="fill:#fff"></rect><rect x="357.87" y="172.18" width="1.62" height="1.62" style="fill:#fff"></rect><rect x="357.87" y="174.9" width="1.62" height="1.62" style="fill:#fff"></rect><rect x="357.87" y="177.61" width="1.62" height="1.62" style="fill:#fff"></rect><rect x="357.87" y="180.33" width="1.62" height="1.62" style="fill:#fff"></rect><rect x="357.87" y="183.05" width="1.62" height="1.62" style="fill:#fff"></rect><rect x="357.87" y="185.77" width="1.62" height="1.62" style="fill:#fff"></rect><rect x="357.87" y="188.49" width="1.62" height="1.62" style="fill:#fff"></rect><rect x="357.87" y="191.2" width="1.62" height="1.62" style="fill:#fff"></rect><rect x="357.87" y="193.92" width="1.62" height="1.62" style="fill:#fff"></rect><rect x="357.87" y="196.64" width="1.62" height="1.62" style="fill:#fff"></rect><rect x="357.87" y="199.36" width="1.62" height="1.62" style="fill:#fff"></rect><rect x="357.87" y="202.07" width="1.62" height="1.62" style="fill:#fff"></rect><rect x="357.87" y="204.79" width="1.62" height="1.62" style="fill:#fff"></rect><rect x="360.44" y="158.59" width="1.62" height="1.62" style="fill:#fff"></rect><rect x="360.44" y="161.31" width="1.62" height="1.62" style="fill:#fff"></rect><rect x="360.44" y="164.03" width="1.62" height="1.62" style="fill:#fff"></rect><rect x="360.44" y="166.74" width="1.62" height="1.62" style="fill:#fff"></rect><rect x="360.44" y="169.46" width="1.62" height="1.62" style="fill:#fff"></rect><rect x="360.44" y="172.18" width="1.62" height="1.62" style="fill:#fff"></rect><rect x="360.44" y="174.9" width="1.62" height="1.62" style="fill:#fff"></rect><rect x="360.44" y="177.61" width="1.62" height="1.62" style="fill:#fff"></rect><rect x="360.44" y="180.33" width="1.62" height="1.62" style="fill:#fff"></rect><rect x="360.44" y="183.05" width="1.62" height="1.62" style="fill:#fff"></rect><rect x="360.44" y="191.2" width="1.62" height="1.62" style="fill:#fff"></rect><rect x="360.44" y="193.92" width="1.62" height="1.62" style="fill:#fff"></rect><rect x="360.44" y="196.64" width="1.62" height="1.62" style="fill:#fff"></rect><rect x="360.44" y="199.36" width="1.62" height="1.62" style="fill:#fff"></rect><rect x="363.02" y="158.59" width="1.62" height="1.62" style="fill:#fff"></rect><rect x="363.02" y="161.31" width="1.62" height="1.62" style="fill:#fff"></rect><rect x="363.02" y="164.03" width="1.62" height="1.62" style="fill:#fff"></rect><rect x="363.02" y="166.74" width="1.62" height="1.62" style="fill:#fff"></rect><rect x="363.02" y="169.46" width="1.62" height="1.62" style="fill:#fff"></rect><rect x="363.02" y="172.18" width="1.62" height="1.62" style="fill:#fff"></rect><rect x="363.02" y="174.9" width="1.62" height="1.62" style="fill:#fff"></rect><rect x="363.02" y="177.61" width="1.62" height="1.62" style="fill:#fff"></rect><rect x="363.02" y="180.33" width="1.62" height="1.62" style="fill:#fff"></rect><rect x="363.02" y="183.05" width="1.62" height="1.62" style="fill:#fff"></rect><rect x="363.02" y="191.2" width="1.62" height="1.62" style="fill:#fff"></rect><rect x="363.02" y="193.92" width="1.62" height="1.62" style="fill:#fff"></rect><rect x="363.02" y="196.64" width="1.62" height="1.62" style="fill:#fff"></rect><rect x="392.01" y="151.53" width="1.62" height="1.62" style="fill:#fff"></rect><rect x="392.01" y="154.25" width="1.62" height="1.62" style="fill:#fff"></rect><rect x="392.01" y="156.97" width="1.62" height="1.62" style="fill:#fff"></rect><rect x="392.01" y="159.69" width="1.62" height="1.62" style="fill:#fff"></rect><rect x="392.01" y="162.4" width="1.62" height="1.62" style="fill:#fff"></rect><rect x="392.01" y="165.12" width="1.62" height="1.62" style="fill:#fff"></rect><rect x="392.01" y="167.84" width="1.62" height="1.62" style="fill:#fff"></rect><rect x="392.01" y="170.56" width="1.62" height="1.62" style="fill:#fff"></rect><rect x="392.01" y="178.71" width="1.62" height="1.62" style="fill:#fff"></rect><rect x="392.01" y="181.43" width="1.62" height="1.62" style="fill:#fff"></rect><rect x="394.58" y="151.53" width="1.62" height="1.62" style="fill:#fff"></rect><rect x="394.58" y="154.25" width="1.62" height="1.62" style="fill:#fff"></rect><rect x="394.58" y="156.97" width="1.62" height="1.62" style="fill:#fff"></rect><rect x="394.58" y="159.69" width="1.62" height="1.62" style="fill:#fff"></rect><rect x="394.58" y="162.4" width="1.62" height="1.62" style="fill:#fff"></rect><rect x="394.58" y="165.12" width="1.62" height="1.62" style="fill:#fff"></rect><rect x="394.58" y="167.84" width="1.62" height="1.62" style="fill:#fff"></rect><rect x="394.58" y="170.56" width="1.62" height="1.62" style="fill:#fff"></rect><rect x="394.58" y="181.43" width="1.62" height="1.62" style="fill:#fff"></rect><rect x="397.15" y="151.53" width="1.62" height="1.62" style="fill:#fff"></rect><rect x="397.15" y="154.25" width="1.62" height="1.62" style="fill:#fff"></rect><rect x="397.15" y="156.97" width="1.62" height="1.62" style="fill:#fff"></rect><rect x="397.15" y="159.69" width="1.62" height="1.62" style="fill:#fff"></rect><rect x="397.15" y="162.4" width="1.62" height="1.62" style="fill:#fff"></rect><rect x="397.15" y="165.12" width="1.62" height="1.62" style="fill:#fff"></rect><rect x="397.15" y="167.84" width="1.62" height="1.62" style="fill:#fff"></rect><rect x="397.15" y="170.56" width="1.62" height="1.62" style="fill:#fff"></rect><rect x="399.73" y="151.53" width="1.62" height="1.62" style="fill:#fff"></rect><rect x="399.73" y="154.25" width="1.62" height="1.62" style="fill:#fff"></rect><rect x="399.73" y="156.97" width="1.62" height="1.62" style="fill:#fff"></rect><rect x="399.73" y="159.69" width="1.62" height="1.62" style="fill:#fff"></rect><rect x="399.73" y="162.4" width="1.62" height="1.62" style="fill:#fff"></rect><rect x="399.73" y="165.12" width="1.62" height="1.62" style="fill:#fff"></rect><rect x="399.73" y="170.56" width="1.62" height="1.62" style="fill:#fff"></rect><rect x="399.73" y="173.28" width="1.62" height="1.62" style="fill:#fff"></rect><rect x="399.73" y="181.43" width="1.62" height="1.62" style="fill:#fff"></rect><rect x="399.73" y="184.15" width="1.62" height="1.62" style="fill:#fff"></rect><rect x="399.73" y="186.86" width="1.62" height="1.62" style="fill:#fff"></rect><rect x="399.73" y="189.58" width="1.62" height="1.62" style="fill:#fff"></rect><rect x="399.73" y="192.3" width="1.62" height="1.62" style="fill:#fff"></rect><rect x="399.73" y="195.02" width="1.62" height="1.62" style="fill:#fff"></rect><rect x="399.73" y="197.74" width="1.62" height="1.62" style="fill:#fff"></rect><rect x="402.3" y="151.53" width="1.62" height="1.62" style="fill:#fff"></rect><rect x="402.3" y="154.25" width="1.62" height="1.62" style="fill:#fff"></rect><rect x="402.3" y="156.97" width="1.62" height="1.62" style="fill:#fff"></rect><rect x="402.3" y="159.69" width="1.62" height="1.62" style="fill:#fff"></rect><rect x="402.3" y="162.4" width="1.62" height="1.62" style="fill:#fff"></rect><rect x="402.3" y="165.12" width="1.62" height="1.62" style="fill:#fff"></rect><rect x="402.3" y="173.28" width="1.62" height="1.62" style="fill:#fff"></rect><rect x="402.3" y="175.99" width="1.62" height="1.62" style="fill:#fff"></rect><rect x="402.3" y="178.71" width="1.62" height="1.62" style="fill:#fff"></rect><rect x="402.3" y="181.43" width="1.62" height="1.62" style="fill:#fff"></rect><rect x="402.3" y="184.15" width="1.62" height="1.62" style="fill:#fff"></rect><rect x="402.3" y="186.86" width="1.62" height="1.62" style="fill:#fff"></rect><rect x="402.3" y="189.58" width="1.62" height="1.62" style="fill:#fff"></rect><rect x="402.3" y="192.3" width="1.62" height="1.62" style="fill:#fff"></rect><rect x="402.3" y="195.02" width="1.62" height="1.62" style="fill:#fff"></rect><rect x="402.3" y="197.74" width="1.62" height="1.62" style="fill:#fff"></rect><rect x="402.3" y="200.45" width="1.62" height="1.62" style="fill:#fff"></rect><rect x="402.3" y="205.89" width="1.62" height="1.62" style="fill:#fff"></rect><rect x="404.88" y="151.53" width="1.62" height="1.62" style="fill:#fff"></rect><rect x="404.88" y="154.25" width="1.62" height="1.62" style="fill:#fff"></rect><rect x="404.88" y="156.97" width="1.62" height="1.62" style="fill:#fff"></rect><rect x="404.88" y="159.69" width="1.62" height="1.62" style="fill:#fff"></rect><rect x="404.88" y="162.4" width="1.62" height="1.62" style="fill:#fff"></rect><rect x="404.88" y="165.12" width="1.62" height="1.62" style="fill:#fff"></rect><rect x="404.88" y="173.28" width="1.62" height="1.62" style="fill:#fff"></rect><rect x="404.88" y="175.99" width="1.62" height="1.62" style="fill:#fff"></rect><rect x="404.88" y="178.71" width="1.62" height="1.62" style="fill:#fff"></rect><rect x="404.88" y="181.43" width="1.62" height="1.62" style="fill:#fff"></rect><rect x="404.88" y="189.58" width="1.62" height="1.62" style="fill:#fff"></rect><rect x="404.88" y="192.3" width="1.62" height="1.62" style="fill:#fff"></rect><rect x="404.88" y="195.02" width="1.62" height="1.62" style="fill:#fff"></rect><rect x="404.88" y="197.74" width="1.62" height="1.62" style="fill:#fff"></rect><rect x="404.88" y="200.45" width="1.62" height="1.62" style="fill:#fff"></rect><rect x="404.88" y="205.89" width="1.62" height="1.62" style="fill:#fff"></rect><rect x="404.88" y="208.61" width="1.62" height="1.62" style="fill:#fff"></rect><rect x="428.24" y="176.8" width="1.62" height="1.62" style="fill:#fff"></rect><rect x="428.24" y="179.52" width="1.62" height="1.62" style="fill:#fff"></rect><rect x="428.24" y="182.24" width="1.62" height="1.62" style="fill:#fff"></rect><rect x="428.24" y="184.96" width="1.62" height="1.62" style="fill:#fff"></rect><rect x="428.24" y="187.67" width="1.62" height="1.62" style="fill:#fff"></rect><rect x="428.24" y="190.39" width="1.62" height="1.62" style="fill:#fff"></rect><rect x="428.24" y="193.11" width="1.62" height="1.62" style="fill:#fff"></rect><rect x="428.24" y="201.26" width="1.62" height="1.62" style="fill:#fff"></rect><rect x="428.24" y="203.98" width="1.62" height="1.62" style="fill:#fff"></rect><rect x="428.24" y="206.7" width="1.62" height="1.62" style="fill:#fff"></rect><rect x="430.82" y="176.8" width="1.62" height="1.62" style="fill:#fff"></rect><rect x="430.82" y="179.52" width="1.62" height="1.62" style="fill:#fff"></rect><rect x="430.82" y="182.24" width="1.62" height="1.62" style="fill:#fff"></rect><rect x="430.82" y="184.96" width="1.62" height="1.62" style="fill:#fff"></rect><rect x="430.82" y="187.67" width="1.62" height="1.62" style="fill:#fff"></rect><rect x="430.82" y="190.39" width="1.62" height="1.62" style="fill:#fff"></rect><rect x="430.82" y="193.11" width="1.62" height="1.62" style="fill:#fff"></rect><rect x="433.39" y="176.8" width="2.33" height="1.62" style="fill:#fff"></rect><rect x="433.39" y="179.52" width="2.33" height="1.62" style="fill:#fff"></rect><rect x="433.39" y="182.24" width="2.33" height="1.62" style="fill:#fff"></rect><rect x="433.39" y="184.96" width="2.33" height="1.62" style="fill:#fff"></rect><rect x="433.39" y="187.67" width="2.33" height="1.62" style="fill:#fff"></rect><rect x="433.39" y="190.39" width="2.33" height="1.62" style="fill:#fff"></rect><rect x="433.39" y="193.11" width="2.33" height="1.62" style="fill:#fff"></rect><rect x="291.78" y="180.33" width="1.62" height="1.62" style="fill:#fff"></rect><rect x="291.78" y="183.05" width="1.62" height="1.62" style="fill:#fff"></rect><rect x="291.78" y="185.77" width="1.62" height="1.62" style="fill:#fff"></rect><rect x="291.78" y="188.49" width="1.62" height="1.62" style="fill:#fff"></rect><rect x="291.78" y="191.2" width="1.62" height="1.62" style="fill:#fff"></rect><rect x="291.78" y="193.92" width="1.62" height="1.62" style="fill:#fff"></rect><rect x="291.78" y="196.64" width="1.62" height="1.62" style="fill:#fff"></rect><rect x="291.78" y="199.36" width="1.62" height="1.62" style="fill:#fff"></rect><rect x="291.78" y="202.07" width="1.62" height="1.62" style="fill:#fff"></rect><rect x="291.78" y="204.79" width="1.62" height="1.62" style="fill:#fff"></rect><rect x="291.78" y="207.51" width="1.62" height="1.62" style="fill:#fff"></rect><rect x="291.78" y="210.23" width="1.62" height="1.62" style="fill:#fff"></rect><rect x="291.78" y="212.95" width="1.62" height="1.62" style="fill:#fff"></rect><rect x="291.78" y="215.66" width="1.62" height="1.62" style="fill:#fff"></rect><rect x="291.78" y="218.38" width="1.62" height="1.62" style="fill:#fff"></rect><rect x="291.78" y="221.1" width="1.62" height="1.62" style="fill:#fff"></rect><rect x="291.78" y="223.82" width="1.62" height="1.62" style="fill:#fff"></rect><rect x="291.78" y="226.53" width="1.62" height="1.62" style="fill:#fff"></rect><rect x="291.78" y="229.25" width="1.62" height="1.62" style="fill:#fff"></rect><rect x="291.78" y="231.97" width="1.62" height="1.62" style="fill:#fff"></rect><rect x="294.36" y="180.33" width="1.62" height="1.62" style="fill:#fff"></rect><rect x="294.36" y="183.05" width="1.62" height="1.62" style="fill:#fff"></rect><rect x="294.36" y="185.77" width="1.62" height="1.62" style="fill:#fff"></rect><rect x="294.36" y="188.49" width="1.62" height="1.62" style="fill:#fff"></rect><rect x="294.36" y="191.2" width="1.62" height="1.62" style="fill:#fff"></rect><rect x="294.36" y="193.92" width="1.62" height="1.62" style="fill:#fff"></rect><rect x="294.36" y="196.64" width="1.62" height="1.62" style="fill:#fff"></rect><rect x="294.36" y="199.36" width="1.62" height="1.62" style="fill:#fff"></rect><rect x="294.36" y="202.07" width="1.62" height="1.62" style="fill:#fff"></rect><rect x="294.36" y="204.79" width="1.62" height="1.62" style="fill:#fff"></rect><rect x="294.36" y="207.51" width="1.62" height="1.62" style="fill:#fff"></rect><rect x="294.36" y="210.23" width="1.62" height="1.62" style="fill:#fff"></rect><rect x="294.36" y="212.95" width="1.62" height="1.62" style="fill:#fff"></rect><rect x="294.36" y="215.66" width="1.62" height="1.62" style="fill:#fff"></rect><rect x="294.36" y="218.38" width="1.62" height="1.62" style="fill:#fff"></rect><rect x="294.36" y="221.1" width="1.62" height="1.62" style="fill:#fff"></rect><rect x="294.36" y="223.82" width="1.62" height="1.62" style="fill:#fff"></rect><rect x="294.36" y="226.53" width="1.62" height="1.62" style="fill:#fff"></rect><rect x="296.93" y="180.33" width="1.62" height="1.62" style="fill:#fff"></rect><rect x="296.93" y="183.05" width="1.62" height="1.62" style="fill:#fff"></rect><rect x="296.93" y="185.77" width="1.62" height="1.62" style="fill:#fff"></rect><rect x="296.93" y="188.49" width="1.62" height="1.62" style="fill:#fff"></rect><rect x="296.93" y="191.2" width="1.62" height="1.62" style="fill:#fff"></rect><rect x="296.93" y="193.92" width="1.62" height="1.62" style="fill:#fff"></rect><rect x="296.93" y="196.64" width="1.62" height="1.62" style="fill:#fff"></rect><rect x="296.93" y="199.36" width="1.62" height="1.62" style="fill:#fff"></rect><rect x="296.93" y="202.07" width="1.62" height="1.62" style="fill:#fff"></rect><rect x="296.93" y="204.79" width="1.62" height="1.62" style="fill:#fff"></rect><rect x="296.93" y="207.51" width="1.62" height="1.62" style="fill:#fff"></rect><rect x="296.93" y="210.23" width="1.62" height="1.62" style="fill:#fff"></rect><rect x="296.93" y="212.95" width="1.62" height="1.62" style="fill:#fff"></rect><rect x="296.93" y="215.66" width="1.62" height="1.62" style="fill:#fff"></rect><rect x="296.93" y="218.38" width="1.62" height="1.62" style="fill:#fff"></rect><rect x="296.93" y="221.1" width="1.62" height="1.62" style="fill:#fff"></rect><rect x="296.93" y="223.82" width="1.62" height="1.62" style="fill:#fff"></rect><rect x="296.93" y="226.53" width="1.62" height="1.62" style="fill:#fff"></rect><rect x="282.15" y="200.17" width="1.62" height="1.62" style="fill:#fff"></rect><rect x="282.15" y="202.88" width="1.62" height="1.62" style="fill:#fff"></rect><rect x="282.15" y="205.6" width="1.62" height="1.62" style="fill:#fff"></rect><rect x="282.15" y="208.32" width="1.62" height="1.62" style="fill:#fff"></rect><rect x="282.15" y="211.04" width="1.62" height="1.62" style="fill:#fff"></rect><rect x="282.15" y="213.76" width="1.62" height="1.62" style="fill:#fff"></rect><rect x="282.15" y="216.47" width="1.62" height="1.62" style="fill:#fff"></rect><rect x="282.15" y="219.19" width="1.62" height="1.62" style="fill:#fff"></rect><rect x="282.15" y="221.91" width="1.62" height="1.62" style="fill:#fff"></rect><rect x="282.15" y="224.63" width="1.62" height="1.62" style="fill:#fff"></rect><rect x="282.15" y="227.34" width="1.62" height="1.62" style="fill:#fff"></rect><rect x="282.15" y="230.06" width="1.62" height="1.62" style="fill:#fff"></rect><rect x="282.15" y="232.78" width="1.62" height="1.62" style="fill:#fff"></rect><rect x="284.72" y="200.17" width="1.62" height="1.62" style="fill:#fff"></rect><rect x="284.72" y="202.88" width="1.62" height="1.62" style="fill:#fff"></rect><rect x="284.72" y="205.6" width="1.62" height="1.62" style="fill:#fff"></rect><rect x="284.72" y="208.32" width="1.62" height="1.62" style="fill:#fff"></rect><rect x="284.72" y="211.04" width="1.62" height="1.62" style="fill:#fff"></rect><rect x="284.72" y="213.76" width="1.62" height="1.62" style="fill:#fff"></rect><rect x="284.72" y="216.47" width="1.62" height="1.62" style="fill:#fff"></rect><rect x="284.72" y="219.19" width="1.62" height="1.62" style="fill:#fff"></rect><rect x="284.72" y="221.91" width="1.62" height="1.62" style="fill:#fff"></rect><rect x="284.72" y="224.63" width="1.62" height="1.62" style="fill:#fff"></rect><rect x="284.72" y="227.34" width="1.62" height="1.62" style="fill:#fff"></rect><rect x="284.72" y="230.06" width="1.62" height="1.62" style="fill:#fff"></rect><rect x="284.72" y="232.78" width="1.62" height="1.62" style="fill:#fff"></rect><rect x="287.3" y="200.17" width="1.62" height="1.62" style="fill:#fff"></rect><rect x="287.3" y="202.88" width="1.62" height="1.62" style="fill:#fff"></rect><rect x="287.3" y="205.6" width="1.62" height="1.62" style="fill:#fff"></rect><rect x="287.3" y="208.32" width="1.62" height="1.62" style="fill:#fff"></rect><rect x="287.3" y="211.04" width="1.62" height="1.62" style="fill:#fff"></rect><rect x="287.3" y="213.76" width="1.62" height="1.62" style="fill:#fff"></rect><rect x="287.3" y="216.47" width="1.62" height="1.62" style="fill:#fff"></rect><rect x="287.3" y="219.19" width="1.62" height="1.62" style="fill:#fff"></rect><rect x="287.3" y="221.91" width="1.62" height="1.62" style="fill:#fff"></rect><rect x="287.3" y="224.63" width="1.62" height="1.62" style="fill:#fff"></rect><rect x="287.3" y="227.34" width="1.62" height="1.62" style="fill:#fff"></rect><rect x="287.3" y="230.06" width="1.62" height="1.62" style="fill:#fff"></rect><rect x="287.3" y="232.78" width="1.62" height="1.62" style="fill:#fff"></rect><rect x="287.3" y="235.5" width="1.62" height="1.62" style="fill:#fff"></rect><rect x="301.6" y="200.98" width="1.62" height="1.62" style="fill:#fff"></rect><rect x="301.6" y="203.7" width="1.62" height="1.62" style="fill:#fff"></rect><rect x="301.6" y="206.41" width="1.62" height="1.62" style="fill:#fff"></rect><rect x="301.6" y="209.13" width="1.62" height="1.62" style="fill:#fff"></rect><rect x="301.6" y="211.85" width="1.62" height="1.62" style="fill:#fff"></rect><rect x="301.6" y="214.57" width="1.62" height="1.62" style="fill:#fff"></rect><rect x="301.6" y="217.28" width="1.62" height="1.62" style="fill:#fff"></rect><rect x="301.6" y="220" width="1.62" height="1.62" style="fill:#fff"></rect><rect x="301.6" y="222.72" width="1.62" height="1.62" style="fill:#fff"></rect><rect x="301.6" y="225.44" width="1.62" height="1.62" style="fill:#fff"></rect><rect x="301.6" y="233.59" width="1.62" height="1.62" style="fill:#fff"></rect><rect x="304.18" y="200.98" width="1.62" height="1.62" style="fill:#fff"></rect><rect x="304.18" y="203.7" width="1.62" height="1.62" style="fill:#fff"></rect><rect x="304.18" y="206.41" width="1.62" height="1.62" style="fill:#fff"></rect><rect x="304.18" y="209.13" width="1.62" height="1.62" style="fill:#fff"></rect><rect x="304.18" y="211.85" width="1.62" height="1.62" style="fill:#fff"></rect><rect x="304.18" y="214.57" width="1.62" height="1.62" style="fill:#fff"></rect><rect x="304.18" y="217.28" width="1.62" height="1.62" style="fill:#fff"></rect><rect x="304.18" y="220" width="1.62" height="1.62" style="fill:#fff"></rect><rect x="304.18" y="222.72" width="1.62" height="1.62" style="fill:#fff"></rect><rect x="304.18" y="230.87" width="1.62" height="1.62" style="fill:#fff"></rect><rect x="304.18" y="233.59" width="1.62" height="1.62" style="fill:#fff"></rect><rect x="306.75" y="200.98" width="1.62" height="1.62" style="fill:#fff"></rect><rect x="306.75" y="203.7" width="1.62" height="1.62" style="fill:#fff"></rect><rect x="306.75" y="206.41" width="1.62" height="1.62" style="fill:#fff"></rect><rect x="306.75" y="209.13" width="1.62" height="1.62" style="fill:#fff"></rect><rect x="306.75" y="211.85" width="1.62" height="1.62" style="fill:#fff"></rect><rect x="306.75" y="214.57" width="1.62" height="1.62" style="fill:#fff"></rect><rect x="306.75" y="217.28" width="1.62" height="1.62" style="fill:#fff"></rect><rect x="306.75" y="220" width="1.62" height="1.62" style="fill:#fff"></rect><rect x="306.75" y="228.16" width="1.62" height="1.62" style="fill:#fff"></rect><rect x="306.75" y="230.87" width="1.62" height="1.62" style="fill:#fff"></rect><rect x="306.75" y="233.59" width="1.62" height="1.62" style="fill:#fff"></rect><rect x="330.69" y="159.69" width="1.62" height="1.62" style="fill:#fff"></rect><rect x="330.69" y="162.4" width="1.62" height="1.62" style="fill:#fff"></rect><rect x="330.69" y="165.12" width="1.62" height="1.62" style="fill:#fff"></rect><rect x="330.69" y="167.84" width="1.62" height="1.62" style="fill:#fff"></rect><rect x="330.69" y="170.56" width="1.62" height="1.62" style="fill:#fff"></rect><rect x="330.69" y="173.28" width="1.62" height="1.62" style="fill:#fff"></rect><rect x="330.69" y="175.99" width="1.62" height="1.62" style="fill:#fff"></rect><rect x="330.69" y="178.71" width="1.62" height="1.62" style="fill:#fff"></rect><rect x="330.69" y="181.43" width="1.62" height="1.62" style="fill:#fff"></rect><rect x="330.69" y="184.15" width="1.62" height="1.62" style="fill:#fff"></rect><rect x="330.69" y="186.86" width="1.62" height="1.62" style="fill:#fff"></rect><rect x="330.69" y="189.58" width="1.62" height="1.62" style="fill:#fff"></rect><rect x="330.69" y="192.3" width="1.62" height="1.62" style="fill:#fff"></rect><rect x="330.69" y="195.02" width="1.62" height="1.62" style="fill:#fff"></rect><rect x="330.69" y="197.74" width="1.62" height="1.62" style="fill:#fff"></rect><rect x="330.69" y="200.45" width="1.62" height="1.62" style="fill:#fff"></rect><rect x="330.69" y="203.17" width="1.62" height="1.62" style="fill:#fff"></rect><rect x="330.69" y="208.61" width="1.62" height="1.62" style="fill:#fff"></rect><rect x="330.69" y="211.32" width="1.62" height="1.62" style="fill:#fff"></rect><rect x="330.69" y="214.04" width="1.62" height="1.62" style="fill:#fff"></rect><rect x="330.69" y="216.76" width="1.62" height="1.62" style="fill:#fff"></rect><rect x="330.69" y="219.48" width="1.62" height="1.62" style="fill:#fff"></rect><rect x="333.26" y="159.69" width="1.62" height="1.62" style="fill:#fff"></rect><rect x="333.26" y="162.4" width="1.62" height="1.62" style="fill:#fff"></rect><rect x="333.26" y="165.12" width="1.62" height="1.62" style="fill:#fff"></rect><rect x="333.26" y="167.84" width="1.62" height="1.62" style="fill:#fff"></rect><rect x="333.26" y="170.56" width="1.62" height="1.62" style="fill:#fff"></rect><rect x="333.26" y="173.28" width="1.62" height="1.62" style="fill:#fff"></rect><rect x="333.26" y="175.99" width="1.62" height="1.62" style="fill:#fff"></rect><rect x="333.26" y="178.71" width="1.62" height="1.62" style="fill:#fff"></rect><rect x="333.26" y="181.43" width="1.62" height="1.62" style="fill:#fff"></rect><rect x="333.26" y="184.15" width="1.62" height="1.62" style="fill:#fff"></rect><rect x="333.26" y="186.86" width="1.62" height="1.62" style="fill:#fff"></rect><rect x="333.26" y="189.58" width="1.62" height="1.62" style="fill:#fff"></rect><rect x="333.26" y="192.3" width="1.62" height="1.62" style="fill:#fff"></rect><rect x="333.26" y="195.02" width="1.62" height="1.62" style="fill:#fff"></rect><rect x="333.26" y="197.74" width="1.62" height="1.62" style="fill:#fff"></rect><rect x="333.26" y="200.45" width="1.62" height="1.62" style="fill:#fff"></rect><rect x="333.26" y="216.76" width="1.62" height="1.62" style="fill:#fff"></rect><rect x="333.26" y="219.48" width="1.62" height="1.62" style="fill:#fff"></rect><rect x="335.84" y="159.69" width="1.62" height="1.62" style="fill:#fff"></rect><rect x="335.84" y="162.4" width="1.62" height="1.62" style="fill:#fff"></rect><rect x="335.84" y="165.12" width="1.62" height="1.62" style="fill:#fff"></rect><rect x="335.84" y="167.84" width="1.62" height="1.62" style="fill:#fff"></rect><rect x="335.84" y="170.56" width="1.62" height="1.62" style="fill:#fff"></rect><rect x="335.84" y="173.28" width="1.62" height="1.62" style="fill:#fff"></rect><rect x="335.84" y="175.99" width="1.62" height="1.62" style="fill:#fff"></rect><rect x="335.84" y="178.71" width="1.62" height="1.62" style="fill:#fff"></rect><rect x="335.84" y="181.43" width="1.62" height="1.62" style="fill:#fff"></rect><rect x="335.84" y="184.15" width="1.62" height="1.62" style="fill:#fff"></rect><rect x="335.84" y="186.86" width="1.62" height="1.62" style="fill:#fff"></rect><rect x="335.84" y="189.58" width="1.62" height="1.62" style="fill:#fff"></rect><rect x="335.84" y="192.3" width="1.62" height="1.62" style="fill:#fff"></rect><rect x="335.84" y="195.02" width="1.62" height="1.62" style="fill:#fff"></rect><rect x="335.84" y="197.74" width="1.62" height="1.62" style="fill:#fff"></rect><rect x="335.84" y="200.45" width="1.62" height="1.62" style="fill:#fff"></rect><rect x="335.84" y="205.89" width="1.62" height="1.62" style="fill:#fff"></rect><rect x="335.84" y="208.61" width="1.62" height="1.62" style="fill:#fff"></rect><rect x="335.84" y="211.32" width="1.62" height="1.62" style="fill:#fff"></rect><rect x="335.84" y="214.04" width="1.62" height="1.62" style="fill:#fff"></rect><rect x="335.84" y="219.48" width="1.62" height="1.62" style="fill:#fff"></rect><rect x="321.34" y="193.92" width="1.62" height="1.62" style="fill:#fff"></rect><rect x="321.34" y="196.64" width="1.62" height="1.62" style="fill:#fff"></rect><rect x="321.34" y="199.36" width="1.62" height="1.62" style="fill:#fff"></rect><rect x="321.34" y="202.07" width="1.62" height="1.62" style="fill:#fff"></rect><rect x="321.34" y="204.79" width="1.62" height="1.62" style="fill:#fff"></rect><rect x="321.34" y="207.51" width="1.62" height="1.62" style="fill:#fff"></rect><rect x="321.34" y="210.23" width="1.62" height="1.62" style="fill:#fff"></rect><rect x="321.34" y="215.66" width="1.62" height="1.62" style="fill:#fff"></rect><rect x="321.34" y="218.38" width="1.62" height="1.62" style="fill:#fff"></rect><rect x="321.34" y="221.1" width="1.62" height="1.62" style="fill:#fff"></rect><rect x="321.34" y="223.82" width="1.62" height="1.62" style="fill:#fff"></rect><rect x="321.34" y="226.53" width="1.62" height="1.62" style="fill:#fff"></rect><rect x="321.34" y="229.25" width="1.62" height="1.62" style="fill:#fff"></rect><rect x="321.34" y="231.97" width="1.62" height="1.62" style="fill:#fff"></rect><rect x="321.34" y="234.69" width="1.62" height="1.62" style="fill:#fff"></rect><rect x="323.92" y="193.92" width="1.62" height="1.62" style="fill:#fff"></rect><rect x="323.92" y="196.64" width="1.62" height="1.62" style="fill:#fff"></rect><rect x="323.92" y="199.36" width="1.62" height="1.62" style="fill:#fff"></rect><rect x="323.92" y="202.07" width="1.62" height="1.62" style="fill:#fff"></rect><rect x="323.92" y="204.79" width="1.62" height="1.62" style="fill:#fff"></rect><rect x="323.92" y="207.51" width="1.62" height="1.62" style="fill:#fff"></rect><rect x="323.92" y="215.66" width="1.62" height="1.62" style="fill:#fff"></rect><rect x="323.92" y="218.38" width="1.62" height="1.62" style="fill:#fff"></rect><rect x="323.92" y="221.1" width="1.62" height="1.62" style="fill:#fff"></rect><rect x="323.92" y="223.82" width="1.62" height="1.62" style="fill:#fff"></rect><rect x="323.92" y="226.53" width="1.62" height="1.62" style="fill:#fff"></rect><rect x="323.92" y="229.25" width="1.62" height="1.62" style="fill:#fff"></rect><rect x="323.92" y="231.97" width="1.62" height="1.62" style="fill:#fff"></rect><rect x="323.92" y="234.69" width="1.62" height="1.62" style="fill:#fff"></rect><rect x="326.49" y="193.92" width="1.62" height="1.62" style="fill:#fff"></rect><rect x="326.49" y="196.64" width="1.62" height="1.62" style="fill:#fff"></rect><rect x="326.49" y="199.36" width="1.62" height="1.62" style="fill:#fff"></rect><rect x="326.49" y="202.07" width="1.62" height="1.62" style="fill:#fff"></rect><rect x="326.49" y="204.79" width="1.62" height="1.62" style="fill:#fff"></rect><rect x="326.49" y="207.51" width="1.62" height="1.62" style="fill:#fff"></rect><rect x="326.49" y="212.95" width="1.62" height="1.62" style="fill:#fff"></rect><rect x="326.49" y="215.66" width="1.62" height="1.62" style="fill:#fff"></rect><rect x="326.49" y="218.38" width="1.62" height="1.62" style="fill:#fff"></rect><rect x="326.49" y="221.1" width="1.62" height="1.62" style="fill:#fff"></rect><rect x="326.49" y="223.82" width="1.62" height="1.62" style="fill:#fff"></rect><rect x="326.49" y="226.53" width="1.62" height="1.62" style="fill:#fff"></rect><rect x="326.49" y="229.25" width="1.62" height="1.62" style="fill:#fff"></rect><rect x="326.49" y="231.97" width="1.62" height="1.62" style="fill:#fff"></rect><rect x="326.49" y="234.69" width="1.62" height="1.62" style="fill:#fff"></rect><rect x="380.75" y="178.71" width="1.62" height="1.62" style="fill:#fff"></rect><rect x="380.75" y="181.43" width="1.62" height="1.62" style="fill:#fff"></rect><rect x="380.75" y="184.15" width="1.62" height="1.62" style="fill:#fff"></rect><rect x="380.75" y="186.86" width="1.62" height="1.62" style="fill:#fff"></rect><rect x="380.75" y="189.58" width="1.62" height="1.62" style="fill:#fff"></rect><rect x="380.75" y="192.3" width="1.62" height="1.62" style="fill:#fff"></rect><rect x="380.75" y="195.02" width="1.62" height="1.62" style="fill:#fff"></rect><rect x="380.75" y="197.74" width="1.62" height="1.62" style="fill:#fff"></rect><rect x="380.75" y="200.45" width="1.62" height="1.62" style="fill:#fff"></rect><rect x="380.75" y="203.17" width="1.62" height="1.62" style="fill:#fff"></rect><rect x="380.75" y="205.89" width="1.62" height="1.62" style="fill:#fff"></rect><rect x="380.75" y="208.61" width="1.62" height="1.62" style="fill:#fff"></rect><rect x="380.75" y="211.32" width="1.62" height="1.62" style="fill:#fff"></rect><rect x="380.75" y="216.76" width="1.62" height="1.62" style="fill:#fff"></rect><rect x="380.75" y="219.48" width="1.62" height="1.62" style="fill:#fff"></rect><rect x="380.75" y="222.2" width="1.62" height="1.62" style="fill:#fff"></rect><rect x="380.75" y="224.91" width="1.62" height="1.62" style="fill:#fff"></rect><rect x="380.75" y="230.35" width="1.62" height="1.62" style="fill:#fff"></rect><rect x="380.75" y="233.07" width="1.62" height="1.62" style="fill:#fff"></rect><rect x="380.75" y="235.78" width="1.62" height="1.62" style="fill:#fff"></rect><rect x="383.33" y="178.71" width="1.62" height="1.62" style="fill:#fff"></rect><rect x="383.33" y="181.43" width="1.62" height="1.62" style="fill:#fff"></rect><rect x="383.33" y="184.15" width="1.62" height="1.62" style="fill:#fff"></rect><rect x="383.33" y="186.86" width="1.62" height="1.62" style="fill:#fff"></rect><rect x="383.33" y="189.58" width="1.62" height="1.62" style="fill:#fff"></rect><rect x="383.33" y="192.3" width="1.62" height="1.62" style="fill:#fff"></rect><rect x="383.33" y="195.02" width="1.62" height="1.62" style="fill:#fff"></rect><rect x="383.33" y="197.74" width="1.62" height="1.62" style="fill:#fff"></rect><rect x="383.33" y="200.45" width="1.62" height="1.62" style="fill:#fff"></rect><rect x="383.33" y="203.17" width="1.62" height="1.62" style="fill:#fff"></rect><rect x="383.33" y="205.89" width="1.62" height="1.62" style="fill:#fff"></rect><rect x="383.33" y="208.61" width="1.62" height="1.62" style="fill:#fff"></rect><rect x="383.33" y="211.32" width="1.62" height="1.62" style="fill:#fff"></rect><rect x="383.33" y="219.48" width="1.62" height="1.62" style="fill:#fff"></rect><rect x="383.33" y="222.2" width="1.62" height="1.62" style="fill:#fff"></rect><rect x="383.33" y="227.63" width="1.62" height="1.62" style="fill:#fff"></rect><rect x="383.33" y="230.35" width="1.62" height="1.62" style="fill:#fff"></rect><rect x="383.33" y="233.07" width="1.62" height="1.62" style="fill:#fff"></rect><rect x="383.33" y="235.78" width="1.62" height="1.62" style="fill:#fff"></rect><rect x="385.9" y="178.71" width="1.62" height="1.62" style="fill:#fff"></rect><rect x="385.9" y="181.43" width="1.62" height="1.62" style="fill:#fff"></rect><rect x="385.9" y="184.15" width="1.62" height="1.62" style="fill:#fff"></rect><rect x="385.9" y="186.86" width="1.62" height="1.62" style="fill:#fff"></rect><rect x="385.9" y="189.58" width="1.62" height="1.62" style="fill:#fff"></rect><rect x="385.9" y="192.3" width="1.62" height="1.62" style="fill:#fff"></rect><rect x="385.9" y="195.02" width="1.62" height="1.62" style="fill:#fff"></rect><rect x="385.9" y="197.74" width="1.62" height="1.62" style="fill:#fff"></rect><rect x="385.9" y="200.45" width="1.62" height="1.62" style="fill:#fff"></rect><rect x="385.9" y="203.17" width="1.62" height="1.62" style="fill:#fff"></rect><rect x="385.9" y="205.89" width="1.62" height="1.62" style="fill:#fff"></rect><rect x="385.9" y="208.61" width="1.62" height="1.62" style="fill:#fff"></rect><rect x="385.9" y="211.32" width="1.62" height="1.62" style="fill:#fff"></rect><rect x="385.9" y="214.04" width="1.62" height="1.62" style="fill:#fff"></rect><rect x="385.9" y="219.48" width="1.62" height="1.62" style="fill:#fff"></rect><rect x="385.9" y="224.91" width="1.62" height="1.62" style="fill:#fff"></rect><rect x="385.9" y="227.63" width="1.62" height="1.62" style="fill:#fff"></rect><rect x="385.9" y="230.35" width="1.62" height="1.62" style="fill:#fff"></rect><rect x="385.9" y="233.07" width="1.62" height="1.62" style="fill:#fff"></rect><rect x="385.9" y="235.78" width="1.62" height="1.62" style="fill:#fff"></rect><rect x="370.26" y="194.21" width="1.62" height="1.62" style="fill:#fff"></rect><rect x="370.26" y="196.92" width="1.62" height="1.62" style="fill:#fff"></rect><rect x="370.26" y="199.64" width="1.62" height="1.62" style="fill:#fff"></rect><rect x="370.26" y="202.36" width="1.62" height="1.62" style="fill:#fff"></rect><rect x="370.26" y="205.08" width="1.62" height="1.62" style="fill:#fff"></rect><rect x="370.26" y="207.8" width="1.62" height="1.62" style="fill:#fff"></rect><rect x="370.26" y="215.95" width="1.62" height="1.62" style="fill:#fff"></rect><rect x="370.26" y="218.67" width="1.62" height="1.62" style="fill:#fff"></rect><rect x="370.26" y="221.38" width="1.62" height="1.62" style="fill:#fff"></rect><rect x="370.26" y="224.1" width="1.62" height="1.62" style="fill:#fff"></rect><rect x="370.26" y="226.82" width="1.62" height="1.62" style="fill:#fff"></rect><rect x="370.26" y="229.54" width="1.62" height="1.62" style="fill:#fff"></rect><rect x="370.26" y="232.26" width="1.62" height="1.62" style="fill:#fff"></rect><rect x="372.84" y="194.21" width="1.62" height="1.62" style="fill:#fff"></rect><rect x="372.84" y="196.92" width="1.62" height="1.62" style="fill:#fff"></rect><rect x="372.84" y="199.64" width="1.62" height="1.62" style="fill:#fff"></rect><rect x="372.84" y="202.36" width="1.62" height="1.62" style="fill:#fff"></rect><rect x="372.84" y="205.08" width="1.62" height="1.62" style="fill:#fff"></rect><rect x="372.84" y="207.8" width="1.62" height="1.62" style="fill:#fff"></rect><rect x="372.84" y="215.95" width="1.62" height="1.62" style="fill:#fff"></rect><rect x="372.84" y="218.67" width="1.62" height="1.62" style="fill:#fff"></rect><rect x="372.84" y="221.38" width="1.62" height="1.62" style="fill:#fff"></rect><rect x="372.84" y="224.1" width="1.62" height="1.62" style="fill:#fff"></rect><rect x="372.84" y="226.82" width="1.62" height="1.62" style="fill:#fff"></rect><rect x="372.84" y="229.54" width="1.62" height="1.62" style="fill:#fff"></rect><rect x="372.84" y="234.97" width="1.62" height="1.62" style="fill:#fff"></rect></g><circle cx="312.28" cy="132.53" r="10.68" transform="translate(-26.95 129.59) rotate(-22.5)" style="fill:#fff;opacity:0.7000000000000001"></circle><rect x="432.95" y="105.34" width="3.22" height="148.64" style="fill:#228BE6"></rect><rect x="381.76" y="105.34" width="2.72" height="148.64" style="fill:#228BE6"></rect><rect x="330.58" y="105.34" width="2.72" height="148.64" style="fill:#228BE6"></rect><g style="isolation:isolate;opacity:0.7000000000000001"><rect x="432.95" y="105.34" width="3.22" height="148.64" style="fill:#fff"></rect><rect x="381.76" y="105.34" width="2.72" height="148.64" style="fill:#fff"></rect><rect x="330.58" y="105.34" width="2.72" height="148.64" style="fill:#fff"></rect></g></g><g id="freepik--Puff--inject-1"><path d="M405.33,413.39H274.19c-24.5,0-26.07-28.85-5.93-42.43a38.69,38.69,0,0,1,12-5.36c39.87-10.49,95.91-81,135.32-51.49a.39.39,0,0,1,.1.08C455.1,343.9,427.63,413.39,405.33,413.39Z" style="fill:#228BE6"></path><path d="M415.58,314.11c-3.31-.22-7.33.71-11.64,4.33-11.21,9.4,5.84,54.67-21,73.5-15,10.5-79.51,15.14-101.06,2.25C266,384.67,265.79,378.71,268.26,371a38.69,38.69,0,0,1,12-5.36C320.13,355.11,376.17,284.6,415.58,314.11Z" style="fill:#fff;opacity:0.2"></path><path d="M261.59,337.62c5.85-6,38.88-6.32,49.13-6.23S334.94,366.46,339.1,372s-30,21.86-46.45,19.78S252.39,347,261.59,337.62Z" style="fill:#228BE6"></path><path d="M261.59,337.62c5.85-6,38.88-6.32,49.13-6.23S334.94,366.46,339.1,372s-30,21.86-46.45,19.78S252.39,347,261.59,337.62Z" style="opacity:0.2"></path></g><g id="freepik--musical-notes--inject-1"><path d="M207.85,102.51l-5.13-11.06-2.62-5.66-1.18,1.4-5.21,6.24-7.27-.35-1.87-.1,2.86,6.19,3.95,8.52a4.87,4.87,0,0,0-2.11.47c-1.88.87-2.91,2.67-2.28,4s2.66,1.73,4.54.85,2.91-2.67,2.29-4h0l-4.56-9.85h7.6l4.73-6.24,3.82,8.25a4.87,4.87,0,0,0-2.11.47c-1.88.87-2.9,2.67-2.28,4s2.66,1.73,4.54.86,2.91-2.68,2.29-4Z" style="fill:#228BE6"></path><path d="M203.5,198.91l-3.6-3-.94-.78-2.23,10.34a3.42,3.42,0,0,0-1.28-.58c-1.33-.29-2.57.25-2.78,1.2s.71,1.94,2,2.23,2.57-.25,2.78-1.2h0l1.49-6.93,3.66,2.76Z" style="fill:#228BE6"></path><path d="M186.64,138.16l-.18-2-6.22-2.6-1.62-.68.34,3.92.66,7.51.32,3.73a4.68,4.68,0,0,0-2-.26c-1.94.17-3.42,1.43-3.3,2.82s1.79,2.38,3.74,2.21,3.41-1.43,3.3-2.82h0l-.51-5.81-.37-4.34,6.19,2.25-.18-2-6.22-2.61-.13-1.54Z" style="fill:#228BE6"></path><path d="M220.33,174.26,222,166.2l.83-4.13-1.2.29-5.32,1.32-3.82-3.09-1-.8-.56,2.77h0l-1.1,5.49h0l-.5,2.46a3.17,3.17,0,0,0-1.33-.58c-1.37-.28-2.65.29-2.85,1.27s.76,2,2.14,2.28,2.64-.29,2.84-1.27h0l1.45-7.18,4.13,3,5.06-1.5L220,170.1h0l-.5,2.47a3.38,3.38,0,0,0-1.33-.59c-1.38-.27-2.65.3-2.85,1.28s.76,2,2.13,2.28,2.65-.3,2.85-1.28Zm.7-9.13-5.33,1.32-3.82-3.1.22-1.09,4.14,3,5.06-1.51-.27,1.34Z" style="fill:#228BE6"></path></g><g id="freepik--Character--inject-1"><path d="M221.42,416.27h58.2a1.14,1.14,0,0,0,1.14-1.15v-3.71a1.14,1.14,0,0,0-1.14-1.14h-55.2V291.45h54.25a2.08,2.08,0,0,0,2.09-2.08v-3.92H221.42a3,3,0,0,0-3,3V413.27A3,3,0,0,0,221.42,416.27Z" style="fill:#263238"></path><g style="isolation:isolate;opacity:0.30000000000000004"><path d="M218.42,288.46V413.27a3,3,0,0,0,3,3h58.2a1.14,1.14,0,0,0,1.14-1.14v-3.71a1.15,1.15,0,0,0-1.14-1.15h-55.2V291.46h54.26a2.09,2.09,0,0,0,2.08-2.09v-3.91H221.42A3,3,0,0,0,218.42,288.46Z" style="fill:#fff"></path></g><path d="M218.42,288.45v31.83c2,.52,4,1,6,1.47v-30.3h54.26a2.09,2.09,0,0,0,2.08-2.09v-3.91H221.42A3,3,0,0,0,218.42,288.45Z" style="opacity:0.2"></path><path d="M115.17,399.56,139,397.48V366.14h8.39v31.33l24,2.09a4.11,4.11,0,0,1,3.71,4.1v3.18H111.45v-3.18A4.12,4.12,0,0,1,115.17,399.56Z" style="fill:#263238"></path><path d="M115.17,399.56,139,397.48V366.14h8.39v31.33l24,2.09a4.11,4.11,0,0,1,3.71,4.1v3.18H111.45v-3.18A4.12,4.12,0,0,1,115.17,399.56Z" style="fill:#fff;isolation:isolate;opacity:0.1"></path><path d="M167.37,410.78a5.49,5.49,0,1,0,5.48-5.48A5.48,5.48,0,0,0,167.37,410.78Z" style="fill:#263238"></path><path d="M119.18,410.78a5.49,5.49,0,1,1-5.49-5.48A5.49,5.49,0,0,1,119.18,410.78Z" style="fill:#263238"></path><path d="M141.3,341.85h3.85a3.71,3.71,0,0,1,3.71,3.71v27a0,0,0,0,1,0,0H137.59a0,0,0,0,1,0,0v-27A3.71,3.71,0,0,1,141.3,341.85Z" transform="translate(286.46 714.38) rotate(180)" style="fill:#263238"></path><path d="M141.3,341.85h3.85a3.71,3.71,0,0,1,3.71,3.71v27a0,0,0,0,1,0,0H137.59a0,0,0,0,1,0,0v-27A3.71,3.71,0,0,1,141.3,341.85Z" transform="translate(286.46 714.38) rotate(180)" style="fill:#fff;isolation:isolate;opacity:0.2"></path><path d="M118.48,279.85s2.58,51.82,13.75,60.75H120.29s-10.65-17.66-11.44-60.75Z" style="fill:#263238"></path><path d="M118.48,279.85s2.58,51.82,13.75,60.75H120.29s-10.65-17.66-11.44-60.75Z" style="fill:#fff;isolation:isolate;opacity:0.1"></path><path d="M117.51,336.3h52.92a4.49,4.49,0,0,1,4.49,4.49v4.1a0,0,0,0,1,0,0H113a0,0,0,0,1,0,0v-4.1A4.49,4.49,0,0,1,117.51,336.3Z" style="fill:#228BE6"></path><rect x="110.66" y="340.6" width="66.62" height="4.29" rx="1.81" style="fill:#263238"></rect><rect x="110.66" y="340.6" width="66.62" height="4.29" rx="1.81" style="fill:#fff;isolation:isolate;opacity:0.6000000000000001"></rect><path d="M106.76,291.19h19.12c5.6,0,9.65-5,9-11.24l-.82-8.29c-.61-6.21-5.65-11.24-11.25-11.24H103.73c-5.61,0-9.65,5-9,11.24l.82,8.29C96.12,286.16,101.15,291.19,106.76,291.19Z" style="fill:#228BE6"></path><g id="freepik--group--inject-1"><path d="M172.74,245.55c5.4,6.29,10.95,12.91,17,18.55,1.73,1.48,3.18,3,5.23,3.65,5.07,1.44,10.66,1.64,16,2,5.68.27,11.48.45,17.22.57l.5,5.62A157.92,157.92,0,0,1,211,278.19a92.19,92.19,0,0,1-13.71.11c-3.42-.2-7.59-1.08-10.52-3.07-9.08-6.07-16-14.21-22.9-22.51l8.85-7.17Z" style="fill:#b65b52"></path><path d="M188.84,259.77l-1.94,1.61-5,4.16-3.57,3L177,269.62l-8.94-5.1-4-2.27a56.83,56.83,0,0,1,2.55-6.18c1.81-3.72,4.44-7.95,7.4-9a4,4,0,0,1,3.44.33C183.79,251,188.84,259.77,188.84,259.77Z" style="fill:#263238"></path><path d="M184.3,273.55c-.55-.41-1.08-.82-1.59-1.24-1.54-1.25-3-2.52-4.38-3.81L177,269.62l-8.94-5.1,2.18-4.32,3.6-7.14a46.48,46.48,0,0,1,8.07,12.48A33.5,33.5,0,0,1,184.3,273.55Z" style="isolation:isolate;opacity:0.2"></path><path d="M191.69,405.59s0,.05,0,.07h.07a11.57,11.57,0,0,0,2.06.94,2.35,2.35,0,0,0,1.65.06,1.07,1.07,0,0,0,.56-1,.74.74,0,0,0-.27-.67,3.44,3.44,0,0,0-2.38-.12,3.1,3.1,0,0,0,1.29-1.7.75.75,0,0,0-.5-.78,1,1,0,0,0-.85,0c-1.05.55-1.5,2.91-1.53,3h0l-.14,0A.12.12,0,0,0,191.69,405.59Zm.65-.46-.2.06c.22-.78.67-2.05,1.3-2.37a.57.57,0,0,1,.46-.05l.09,0c.26.12.29.27.27.39C194.18,403.76,193.18,404.69,192.34,405.13Zm0,.44c1.13-.31,2.69-.59,3.16-.22a.36.36,0,0,1,.13.33.72.72,0,0,1-.34.64C194.81,406.58,193.73,406.3,192.36,405.57Z" style="fill:#228BE6"></path><polygon points="187.03 388.39 182.04 404.38 190.52 405.19 195.06 390.63 187.03 388.39" style="fill:#b55b52"></polygon><polygon points="187.03 388.39 184.55 396.31 192.91 397.5 195.06 390.63 187.03 388.39" style="isolation:isolate;opacity:0.2"></polygon><path d="M191.37,404.35l-9.14-2.77a.61.61,0,0,0-.77.37h0l-2.64,7.1a1.5,1.5,0,0,0,1,1.87c3.2.92,4.78,1.19,8.81,2.38,2.47.74,7.29,2.43,10.83,2.91s3.91-3,2.46-3.54c-3.45-1.24-7.53-4.95-9.28-7.44A2.32,2.32,0,0,0,191.37,404.35Z" style="fill:#263238"></path><path d="M135.85,303.26c1.17,19,4.05,29.36,21.12,31.83s43.74,0,43.74,0l-16.33,58.4L200.69,399S228,328.4,224.34,320.74s-55-12.73-55-12.73l-4.67-9.69Z" style="fill:#228BE6"></path><path d="M212.37,367.06C206.48,384,200.69,399,200.69,399l-16.31-5.47,16.33-58.4A282.52,282.52,0,0,1,167,336c-3.51-.16-6.93-.44-10-.89-17.07-2.47-19.95-12.87-21.12-31.83l28.8-4.94,4.67,9.69s51.4,5.08,55,12.73C226.29,324.87,219.27,347.28,212.37,367.06Z" style="fill:#fff;isolation:isolate;opacity:0.4"></path><path d="M212.37,367.06C206.48,384,200.69,399,200.69,399l-16.31-5.47,16.33-58.4A282.52,282.52,0,0,1,167,336l.75-25.63s31.9-.16,43.88,6.86C214.55,318.93,213.75,343.71,212.37,367.06Z" style="isolation:isolate;opacity:0.2"></path><path d="M120.85,303.26c1.17,19,4.05,29.36,21.12,31.83s43.74,0,43.74,0l3.67,62.4,16.31-.53s7.27-70.56,3.65-78.22-50-8.73-50-8.73l-4.67-11.69Z" style="fill:#228BE6"></path><path d="M120.85,303.26c1.17,19,4.05,29.36,21.12,31.83s43.74,0,43.74,0l3.67,62.4,16.31-.53s7.27-70.56,3.65-78.22-50-8.73-50-8.73l-4.67-11.69Z" style="fill:#fff;isolation:isolate;opacity:0.4"></path><path d="M202.2,407.85s0,0,0,.06h.07a10.57,10.57,0,0,0,2.23.35,2.29,2.29,0,0,0,1.61-.38,1.09,1.09,0,0,0,.27-1.11.75.75,0,0,0-.45-.57,3.4,3.4,0,0,0-2.32.53,3.09,3.09,0,0,0,.79-2,.73.73,0,0,0-.69-.62,1,1,0,0,0-.82.24c-.86.81-.66,3.21-.65,3.34l.14,0h0l-.14,0s-.14.05-.14.06A.24.24,0,0,0,202.2,407.85Zm.49-.61-.17.1c0-.81.1-2.16.62-2.63a.55.55,0,0,1,.42-.17h.1c.28,0,.35.18.37.29A4,4,0,0,1,202.69,407.24Zm.14.41c1-.6,2.44-1.29,3-1.06a.36.36,0,0,1,.21.29.72.72,0,0,1-.15.7C205.47,408,204.35,408,202.83,407.65Z" style="fill:#228BE6"></path><polygon points="193.09 392.53 192.58 409.27 200.96 407.78 201.42 392.53 193.09 392.53" style="fill:#b55b52"></polygon><polygon points="193.09 392.53 192.83 400.82 201.21 399.73 201.43 392.53 193.09 392.53" style="isolation:isolate;opacity:0.2"></polygon><path d="M201.55,406.73l-9.54-.21a.61.61,0,0,0-.65.57h0l-.63,7.55a1.49,1.49,0,0,0,1.45,1.53c3.34,0,4.93-.13,9.13-.07,2.58.05,7.67.39,11.21-.1s3-4,1.42-4.07c-3.65-.27-8.58-2.75-10.93-4.68A2.44,2.44,0,0,0,201.55,406.73Z" style="fill:#263238"></path><polygon points="188.38 397.52 205.97 397.97 207.17 390.39 187.86 390.27 188.38 397.52" style="fill:#228BE6"></polygon><polygon points="188.38 397.52 205.97 397.97 207.17 390.39 187.86 390.27 188.38 397.52" style="fill:#fff;opacity:0.2"></polygon><path d="M177.47,247.39S167,275,166.54,303.26H120.85s0-26.09,7.75-46.62a59.15,59.15,0,0,1,5.27-10.8,37.5,37.5,0,0,1,3.31-4.54,54.66,54.66,0,0,1,19-2C165.72,240.28,177.47,247.39,177.47,247.39Z" style="fill:#263238"></path><path d="M149.63,240l11.22,8.53,1.72-3.45c-.51-2.58-.37-4.05,1.51-6.21l-5.22-12.53C157.43,231.38,154.27,237.87,149.63,240Z" style="fill:#b55b52"></path><path d="M161,231.43l3.08,7.41a17.82,17.82,0,0,0-1.81,2.43c-1.91-1.34-3.58-5-2.71-7.29A7.86,7.86,0,0,1,161,231.43Z" style="isolation:isolate;opacity:0.2"></path><ellipse cx="174.49" cy="227.18" rx="6.41" ry="5.26" transform="translate(-80.82 357.09) rotate(-79.44)"></ellipse><path d="M181,218.27c.28,3-1.45,8.74-5,6S180.48,213.08,181,218.27Z" style="fill:#263238"></path><path d="M159.75,217.72c-2,7.19-3.53,11.29-1.21,16.1,3.5,7.23,13.34,6.93,17.45.46,3.71-5.81,6.35-16.58.39-21.7A10.28,10.28,0,0,0,159.75,217.72Z" style="fill:#b55b52"></path><path d="M156.88,209.4l8.29.26-.14,4.76-.46-.3s-1.06,6.89-5.19,8.95C154.33,218.57,153.27,211.77,156.88,209.4Z" style="fill:#263238"></path><path d="M155,222.65a6.94,6.94,0,0,0,2,5c1.74,1.77,3.86.51,4.42-1.77.51-2.06.22-5.46-2-6.37A3.21,3.21,0,0,0,155,222.65Z" style="fill:#b55b52"></path><path d="M169.8,223.28c-.2.57-.06,1.14.32,1.26s.84-.23,1-.81.05-1.14-.32-1.26S170,222.7,169.8,223.28Z" style="fill:#263238"></path><path d="M176.31,225.45c-.2.58-.06,1.14.32,1.27s.84-.24,1-.81.05-1.14-.32-1.27S176.5,224.88,176.31,225.45Z" style="fill:#263238"></path><path d="M174.14,225.05a20.85,20.85,0,0,0,1.16,5.66,3.59,3.59,0,0,1-2.89-.45Z" style="fill:#a02724"></path><path d="M168.56,231.42a6.33,6.33,0,0,0,.74.3.17.17,0,0,0,.22-.12.17.17,0,0,0-.11-.22,4.78,4.78,0,0,1-3.11-3,.18.18,0,1,0-.34.09A4.92,4.92,0,0,0,168.56,231.42Z" style="fill:#263238"></path><path d="M168.51,220.51a.36.36,0,0,0,.36,0,2.88,2.88,0,0,1,2.56-.4.36.36,0,0,0,.28-.66,3.61,3.61,0,0,0-3.24.47.37.37,0,0,0-.1.5A.36.36,0,0,0,168.51,220.51Z" style="fill:#263238"></path><path d="M179.88,224.16a.45.45,0,0,0,.2,0,.37.37,0,0,0,.32-.4,3.53,3.53,0,0,0-1.78-2.71.37.37,0,0,0-.48.17.35.35,0,0,0,.16.47,2.74,2.74,0,0,1,1.38,2.16A.37.37,0,0,0,179.88,224.16Z" style="fill:#263238"></path><path d="M161.88,215.7a3.44,3.44,0,0,0,3.65.77c2.14-.86,3.23-6.65,8.85-3.23a3.43,3.43,0,0,1,3.41,1.51c1.37,2-.19,8.61,3.1,7.93s2.8-1.72,2.8-1.72-.94.5-1.44,0a3,3,0,0,0,1.13-3.29s-.85.86-1.36.64a13.55,13.55,0,0,0-.27-8.15c-1.5-4.79-13-4.63-13-4.63s-1.25-2.51-6.53-1.23-8.11,7.31-7.5,10.08Z" style="fill:#263238"></path><path d="M163.31,224c-.65,3.48-3.49,5.87-6.35,5.34s-4.65-3.79-4-7.27,3.5-5.88,6.35-5.34S164,220.51,163.31,224Z"></path><path d="M158.82,218.66c2.1-7.76,5.48-13.26,16.48-12.48l-.65-.8-6-1.08s-10.93-.35-13.41,14.36Z" style="fill:#263238"></path><path d="M158.82,218.66c2.1-7.76,5.48-13.26,16.48-12.48l-.65-.8-6-1.08s-10.93-.35-13.41,14.36Z" style="fill:#fff;isolation:isolate;opacity:0.30000000000000004"></path><path d="M161.06,223.44c-.55,2.95-2.95,5-5.37,4.52s-3.94-3.21-3.39-6.16,3-5,5.38-4.52S161.61,220.49,161.06,223.44Z" style="fill:#263238"></path><path d="M161.06,223.44c-.55,2.95-2.95,5-5.37,4.52s-3.94-3.21-3.39-6.16,3-5,5.38-4.52S161.61,220.49,161.06,223.44Z" style="fill:#fff;isolation:isolate;opacity:0.4"></path><path d="M201.55,406.73l-9.54-.21a.61.61,0,0,0-.65.57h0l-.63,7.55a1.49,1.49,0,0,0,1.45,1.53c3.34,0,4.93-.13,9.13-.07,2.58.05,7.67.39,11.21-.1s3-4,1.42-4.07c-3.65-.27-8.58-2.75-10.93-4.68A2.44,2.44,0,0,0,201.55,406.73Z" style="fill:#fff;opacity:0.2"></path><path d="M224.67,270l7.62.05-4.13,8.71s-6.47-1.48-6-5Z" style="fill:#b55b52"></path><polygon points="237.19 273.93 233.44 280.97 228.16 278.77 232.29 270.06 237.19 273.93" style="fill:#b55b52"></polygon><path d="M198.94,254.55l-15.3-7.76a.62.62,0,0,1-.27-.84l.12-.22a.62.62,0,0,1,.83-.28l15.3,7.77,1.09,1.32Z" style="fill:#263238"></path><path d="M182.23,255.11l5.14-5.63,3.69,8.91s-5.43,3.8-7.76,1.12Z" style="fill:#b55b52"></path><polygon points="193.53 248.43 196.24 255.94 191.06 258.39 187.37 249.48 193.53 248.43" style="fill:#b55b52"></polygon><path d="M154.11,267l-18.62,2.14a40.46,40.46,0,0,1-6.89-12.5,59.15,59.15,0,0,1,5.27-10.8c4.34-.44,9.66.12,13.46,4.13A23.9,23.9,0,0,1,154.11,267Z" style="isolation:isolate;opacity:0.2"></path><path d="M142.43,246.82c2.36,4.94,5,10.11,7.77,14.84,2.28,3.74,4.65,7.74,7.92,10.26,6.18-.06,19.4-12.65,24.42-17.16l4.32,3.63c-5.94,8.28-19,25-30.41,23.65-9.18-1.66-16.27-14.93-20.45-22.37-1.4-2.71-2.74-5.33-4-8.22l10.41-4.63Z" style="fill:#b65b52"></path><path d="M137.18,241.3c-6.14,2.13-8.35,12.25-1.33,25.7l16-7.23s-4.42-10.17-6.81-13.9S137.18,241.3,137.18,241.3Z" style="fill:#263238"></path></g><path d="M246,244.47,233.5,272a2.67,2.67,0,0,1-2.26,1.4H186.45c-.9,0-1.35-.63-1-1.4L198,244.47a2.69,2.69,0,0,1,2.27-1.39H245C245.92,243.08,246.37,243.71,246,244.47Z" style="fill:#263238"></path><path d="M246,244.48,233.5,272a2.67,2.67,0,0,1-2.26,1.4H186.45c-.9,0-1.35-.63-1-1.4L198,244.48a2.67,2.67,0,0,1,2.26-1.4H245C245.92,243.08,246.37,243.71,246,244.48Z" style="fill:#fff;isolation:isolate;opacity:0.4"></path><path d="M246,244.47,233.5,272a2.67,2.67,0,0,1-2.26,1.4H187.45c-.9,0-1.35-.63-1-1.4L199,244.47a2.69,2.69,0,0,1,2.27-1.39H245C245.92,243.08,246.37,243.71,246,244.47Z" style="fill:#fff;isolation:isolate;opacity:0.4"></path><path d="M220.16,258.21a6.87,6.87,0,0,1-5.6,3.9c-2.12,0-3-1.74-2.06-3.9a6.89,6.89,0,0,1,5.61-3.9C220.22,254.31,221.14,256.06,220.16,258.21Z" style="fill:#fff;isolation:isolate;opacity:0.4"></path><path d="M197.7,252.7l-5,11a2,2,0,0,1-1.68,1h-2.27l6-13.1H197C197.64,251.66,198,252.13,197.7,252.7Z" style="isolation:isolate;opacity:0.4"></path><path d="M211.51,276.89H196.88a1.68,1.68,0,0,1-1.43-2.56l7.71-12.66a.59.59,0,0,1,.52-.27l.76.05,1.08.06a.56.56,0,0,1,.5.76l-4.26,11.85a1.24,1.24,0,0,0,1.17,1.65h7.23a1,1,0,0,1,.8.4Z" style="fill:#263238"></path><path d="M211.51,276.89H197.88a1.68,1.68,0,0,1-1.43-2.56l7.71-12.66a.6.6,0,0,1,.28-.22l1.08.06a.56.56,0,0,1,.5.76l-4.26,11.85a1.24,1.24,0,0,0,1.17,1.65h7.23a1,1,0,0,1,.8.4Z" style="fill:#fff;isolation:isolate;opacity:0.2"></path><path d="M233.51,276.89H218.88a1.68,1.68,0,0,1-1.43-2.56l7.71-12.66a.59.59,0,0,1,.52-.27l.76.05,1.08.06a.56.56,0,0,1,.5.76l-4.26,11.85a1.24,1.24,0,0,0,1.17,1.65h7.23a1,1,0,0,1,.8.4Z" style="fill:#263238"></path><path d="M233.51,276.89H219.88a1.68,1.68,0,0,1-1.43-2.56l7.71-12.66a.6.6,0,0,1,.28-.22l1.08.06a.56.56,0,0,1,.5.76l-4.26,11.85a1.24,1.24,0,0,0,1.17,1.65h7.23a1,1,0,0,1,.8.4Z" style="fill:#fff;isolation:isolate;opacity:0.2"></path><path d="M251.51,271.63h15a1,1,0,0,1,1,1v4.24a0,0,0,0,1,0,0h-17a0,0,0,0,1,0,0v-4.24A1,1,0,0,1,251.51,271.63Z" style="fill:#263238"></path><path d="M251.51,271.63h15a1,1,0,0,1,1,1v4.24a0,0,0,0,1,0,0h-17a0,0,0,0,1,0,0v-4.24A1,1,0,0,1,251.51,271.63Z" style="fill:#fff;isolation:isolate;opacity:0.2"></path><rect x="252.57" y="252.32" width="12.89" height="23.03" rx="0.78" style="fill:#263238"></rect><rect x="252.57" y="252.32" width="12.89" height="23.03" rx="0.78" style="fill:#228BE6"></rect><rect x="252.57" y="252.32" width="12.89" height="23.03" rx="0.78" style="isolation:isolate;opacity:0.2"></rect><rect x="253.39" y="253.89" width="11.23" height="19.87" style="fill:#263238"></rect><rect x="253.39" y="253.89" width="11.23" height="2.61" style="fill:#228BE6"></rect><rect x="253.39" y="253.89" width="11.23" height="2.61" style="fill:#fff;opacity:0.2"></rect><rect x="253.39" y="270.11" width="11.23" height="3.65" style="fill:#228BE6"></rect><rect x="253.39" y="270.11" width="11.23" height="3.65" style="fill:#fff;opacity:0.2"></rect><rect x="254.11" y="261.95" width="0.35" height="2.44" style="fill:#228BE6;isolation:isolate"></rect><rect x="257.65" y="261.95" width="0.35" height="2.44" style="fill:#228BE6;isolation:isolate"></rect><rect x="254.7" y="262.77" width="0.35" height="0.8" style="fill:#228BE6;isolation:isolate"></rect><rect x="261.2" y="262.77" width="0.35" height="0.8" style="fill:#228BE6;isolation:isolate"></rect><rect x="257.06" y="262.57" width="0.35" height="1.19" style="fill:#228BE6;isolation:isolate"></rect><rect x="263.56" y="262.57" width="0.35" height="1.19" style="fill:#228BE6;isolation:isolate"></rect><rect x="260.61" y="262.57" width="0.35" height="1.19" style="fill:#228BE6;isolation:isolate"></rect><rect x="255.29" y="261.95" width="0.35" height="2.44" style="fill:#228BE6;isolation:isolate"></rect><rect x="260.02" y="261.95" width="0.35" height="2.44" style="fill:#228BE6;isolation:isolate"></rect><rect x="261.79" y="261.95" width="0.35" height="2.44" style="fill:#228BE6;isolation:isolate"></rect><rect x="256.47" y="261.72" width="0.35" height="2.89" style="fill:#228BE6;isolation:isolate"></rect><rect x="262.97" y="261.72" width="0.35" height="2.89" style="fill:#228BE6;isolation:isolate"></rect><rect x="258.83" y="261.72" width="0.35" height="2.89" style="fill:#228BE6;isolation:isolate"></rect><rect x="255.88" y="261.18" width="0.35" height="3.98" style="fill:#228BE6;isolation:isolate"></rect><rect x="259.43" y="261.18" width="0.35" height="3.98" style="fill:#228BE6;isolation:isolate"></rect><rect x="258.24" y="261.18" width="0.35" height="3.98" style="fill:#228BE6;isolation:isolate"></rect><rect x="262.38" y="261.18" width="0.35" height="3.98" style="fill:#228BE6;isolation:isolate"></rect><g style="opacity:0.5"><rect x="254.11" y="261.95" width="0.35" height="2.44" style="fill:#fff;isolation:isolate"></rect><rect x="257.65" y="261.95" width="0.35" height="2.44" style="fill:#fff;isolation:isolate"></rect><rect x="254.7" y="262.77" width="0.35" height="0.8" style="fill:#fff;isolation:isolate"></rect><rect x="261.2" y="262.77" width="0.35" height="0.8" style="fill:#fff;isolation:isolate"></rect><rect x="257.06" y="262.57" width="0.35" height="1.19" style="fill:#fff;isolation:isolate"></rect><rect x="263.56" y="262.57" width="0.35" height="1.19" style="fill:#fff;isolation:isolate"></rect><rect x="260.61" y="262.57" width="0.35" height="1.19" style="fill:#fff;isolation:isolate"></rect><rect x="255.29" y="261.95" width="0.35" height="2.44" style="fill:#fff;isolation:isolate"></rect><rect x="260.02" y="261.95" width="0.35" height="2.44" style="fill:#fff;isolation:isolate"></rect><rect x="261.79" y="261.95" width="0.35" height="2.44" style="fill:#fff;isolation:isolate"></rect><rect x="256.47" y="261.72" width="0.35" height="2.89" style="fill:#fff;isolation:isolate"></rect><rect x="262.97" y="261.72" width="0.35" height="2.89" style="fill:#fff;isolation:isolate"></rect><rect x="258.83" y="261.72" width="0.35" height="2.89" style="fill:#fff;isolation:isolate"></rect><rect x="255.88" y="261.18" width="0.35" height="3.98" style="fill:#fff;isolation:isolate"></rect><rect x="259.43" y="261.18" width="0.35" height="3.98" style="fill:#fff;isolation:isolate"></rect><rect x="258.24" y="261.18" width="0.35" height="3.98" style="fill:#fff;isolation:isolate"></rect><rect x="262.38" y="261.18" width="0.35" height="3.98" style="fill:#fff;isolation:isolate"></rect></g><polygon points="261.47 271.17 261.47 272.58 262.37 271.87 261.47 271.17" style="fill:#fff"></polygon><rect x="262.42" y="271.17" width="0.21" height="1.41" style="fill:#fff"></rect><polygon points="256.55 272.58 256.55 271.17 255.65 271.87 256.55 272.58" style="fill:#fff"></polygon><rect x="255.39" y="271.17" width="0.21" height="1.41" transform="translate(510.99 543.75) rotate(180)" style="fill:#fff"></rect><path d="M259.9,271.87a.9.9,0,1,1-.89-1A1,1,0,0,1,259.9,271.87Z" style="fill:#fff"></path><rect x="258.68" y="271.35" width="0.21" height="1.04" transform="translate(517.58 543.75) rotate(180)" style="fill:#228BE6"></rect><rect x="259.13" y="271.35" width="0.21" height="1.04" transform="translate(518.46 543.75) rotate(180)" style="fill:#228BE6"></rect><path d="M146.36,416.27h58.2a1.15,1.15,0,0,0,1.15-1.15v-3.71a1.15,1.15,0,0,0-1.15-1.14h-55.2V291.45h54.26a2.09,2.09,0,0,0,2.09-2.08v-3.92H146.36a3,3,0,0,0-3,3V413.27A3,3,0,0,0,146.36,416.27Z" style="fill:#263238"></path><g style="isolation:isolate;opacity:0.4"><path d="M146.36,416.27h58.2a1.15,1.15,0,0,0,1.15-1.15v-3.71a1.15,1.15,0,0,0-1.15-1.14h-55.2V291.45h54.26a2.09,2.09,0,0,0,2.09-2.08v-3.92H146.36a3,3,0,0,0-3,3V413.27A3,3,0,0,0,146.36,416.27Z" style="fill:#fff"></path></g><path d="M138.91,279.77H292.33a1.94,1.94,0,0,1,1.94,1.94v4.72a0,0,0,0,1,0,0H137a0,0,0,0,1,0,0v-4.73A1.94,1.94,0,0,1,138.91,279.77Z" transform="translate(431.24 566.22) rotate(180)" style="fill:#228BE6"></path><rect x="136.97" y="279.77" width="157.3" height="3.33" transform="translate(431.24 562.88) rotate(180)" style="isolation:isolate;opacity:0.2"></rect><path d="M133.67,280.64h163.9a1.88,1.88,0,0,0,1.88-1.87h0a1.88,1.88,0,0,0-1.88-1.88H133.67a1.88,1.88,0,0,0-1.88,1.88h0A1.88,1.88,0,0,0,133.67,280.64Z" style="fill:#228BE6"></path></g><g id="freepik--trash-bin--inject-1"><path d="M90.42,396a2.43,2.43,0,0,1,2-3.49A5.24,5.24,0,0,1,94,386.8a1.23,1.23,0,0,1,.72-.31,1.35,1.35,0,0,1,.77.34l4.56,3.27a2.8,2.8,0,0,1,.91.9c.93,1.8-2.43,4.12-1,5.6.4.43,1,.52,1.53.83,1.08.68,1.21,2.17,1.72,3.34s2.27,2.09,2.94,1c-.49-1.12,1-2.09,2.24-2.24s2.5-.21,3.18-1.36c1.73,1.52,5.62-2.71,5.53-4.42a3.35,3.35,0,0,1,2.72,2.78,20.16,20.16,0,0,1,.14,4.26c0,2.76.94,5.47.89,8.24,0,2.15-.87,4.54-2.84,5.4a7.31,7.31,0,0,1-3,.41l-22.44-.14a3.38,3.38,0,0,1-1.58-.26c-1-.53-1.22-1.86-1.31-3q-.61-7.31-1.21-14.62Z" style="fill:#228BE6"></path><path d="M90.42,396a2.43,2.43,0,0,1,2-3.49A5.24,5.24,0,0,1,94,386.8a1.23,1.23,0,0,1,.72-.31,1.35,1.35,0,0,1,.77.34l4.56,3.27a2.8,2.8,0,0,1,.91.9c.93,1.8-2.43,4.12-1,5.6.4.43,1,.52,1.53.83,1.08.68,1.21,2.17,1.72,3.34s2.27,2.09,2.94,1c-.49-1.12,1-2.09,2.24-2.24s2.5-.21,3.18-1.36c1.73,1.52,5.62-2.71,5.53-4.42a3.35,3.35,0,0,1,2.72,2.78,20.16,20.16,0,0,1,.14,4.26c0,2.76.94,5.47.89,8.24,0,2.15-.87,4.54-2.84,5.4a7.31,7.31,0,0,1-3,.41l-22.44-.14a3.38,3.38,0,0,1-1.58-.26c-1-.53-1.22-1.86-1.31-3q-.61-7.31-1.21-14.62Z" style="fill:#fff;isolation:isolate;opacity:0.30000000000000004"></path><path d="M85.19,372.28l.29,3.52.2,2.51.53,6.54.3,3.75.41,5,.17,2.15,0,.64.2,2.51.28,3.46.17,2.14.18,2.17.21,2.52.15,1.92.18,2.13.07.93h32l.07-.93.17-2.14.16-1.91.2-2.52.18-2.17.17-2.14.28-3.46.21-2.51,0-.64.17-2.15.4-5,.31-3.76.53-6.53.2-2.51.29-3.52H85.19ZM87,373.92h.73l-.67.67h0Zm3,0h.76l3.19,3.19-3.57,3.58-3.12-3.12-.06-.85ZM87.9,385.47,90.37,383l3.57,3.57-3.57,3.57-2.28-2.28ZM121,387.86l-2.28,2.28-3.57-3.57,3.57-3.57,2.47,2.47h0ZM95.1,378.27l3.57,3.57-3.57,3.58-3.58-3.58Zm0-2.31-2-2h4.09Zm4.73,7,3.57,3.57-3.57,3.57-3.57-3.57Zm4.72,11.87L101,391.3l3.56-3.57,3.58,3.57Zm4.73-2.41,3.57,3.57-3.56,3.57L105.71,396ZM103.4,396l-3.57,3.58L96.26,396l3.57-3.57ZM101,381.84l3.56-3.57,3.58,3.57-3.58,3.58Zm8.29,1.16,3.57,3.57-3.57,3.57-3.57-3.57Zm1.16-1.16,3.58-3.57,3.56,3.57L114,385.42Zm7.14,9.46L114,394.87l-3.58-3.57,3.58-3.57ZM114,397.19l3.56,3.57L114,404.33l-3.58-3.57Zm-1.17,8.3-3.57,3.57-3.57-3.57,3.58-3.58Zm-8.3-1.16L101,400.76l3.56-3.57,3.58,3.57Zm-1.15,1.16-3.57,3.57-3.57-3.57,3.57-3.58Zm-4.73,4.72-2.31,2.32H93.84l-2.32-2.32,3.58-3.57Zm-3.57-5.88-3.58-3.57,3.58-3.57,3.57,3.57Zm0-9.46-3.58-3.57,3.58-3.57,3.57,3.57Zm4.35-20.95h.75l3.2,3.19-3.57,3.58-3.57-3.58Zm3.07,0h4.08l-2,2Zm6.38,0h.76l3.19,3.19-3.57,3.58-3.57-3.58Zm7.15,0-2,2-2-2Zm3.07,0,2.8,2.8-.07.85-3.11,3.12-3.57-3.58,3.2-3.19Zm3,0-.06.66h0l-.66-.66Zm-.77,9.41-1.48-1.49,1.75-1.75Zm-.71,8.74-.77-.77.91-.92h0l-.14,1.69Zm-.49,6.09-1.44,1.44L115.17,396l3.57-3.57,1.76,1.76Zm-.21,2.67-.07-.07.08-.08v.15Zm-.62,7.62-.61.6-3.57-3.56,3.57-3.58L119.8,403l-.45,5.48Zm-1.77,4.08,1.16-1.16.35.34-.07.82Zm-2.31,0h-2.51l-2.32-2.32,3.58-3.57,3.56,3.57Zm-7.15,0,1.16-1.16,1.16,1.16Zm-4.83,0-2.3-2.32,3.56-3.57,3.58,3.57-2.32,2.32Zm-4.63,0,1.17-1.16,1.16,1.16ZM90,411.71l.34-.34,1.16,1.16H90.09ZM89.32,403l1.05-1.06,3.57,3.58-3.57,3.56-.61-.6Zm-.19-2.3.09.09-.08.07v-.16Zm-.53-6.45,1.77-1.76L93.94,396l-3.57,3.57-1.45-1.44Zm-.31-3.84.93.92-.79.78Zm-.83-10.3,1.76,1.76-1.5,1.5-.26-3.26Z" style="fill:#228BE6"></path><g style="isolation:isolate;opacity:0.6000000000000001"><path d="M85.19,372.28l.29,3.52.2,2.51.53,6.54.3,3.75.41,5,.17,2.15,0,.64.2,2.51.28,3.46.17,2.14.18,2.17.21,2.52.15,1.92.18,2.13.07.93h32l.07-.93.17-2.14.16-1.91.2-2.52.18-2.17.17-2.14.28-3.46.21-2.51,0-.64.17-2.15.4-5,.31-3.76.53-6.53.2-2.51.29-3.52H85.19ZM87,373.92h.73l-.67.67h0Zm3,0h.76l3.19,3.19-3.57,3.58-3.12-3.12-.06-.85ZM87.9,385.47,90.37,383l3.57,3.57-3.57,3.57-2.28-2.28ZM121,387.86l-2.28,2.28-3.57-3.57,3.57-3.57,2.47,2.47h0ZM95.1,378.27l3.57,3.57-3.57,3.58-3.58-3.58Zm0-2.31-2-2h4.09Zm4.73,7,3.57,3.57-3.57,3.57-3.57-3.57Zm4.72,11.87L101,391.3l3.56-3.57,3.58,3.57Zm4.73-2.41,3.57,3.57-3.56,3.57L105.71,396ZM103.4,396l-3.57,3.58L96.26,396l3.57-3.57ZM101,381.84l3.56-3.57,3.58,3.57-3.58,3.58Zm8.29,1.16,3.57,3.57-3.57,3.57-3.57-3.57Zm1.16-1.16,3.58-3.57,3.56,3.57L114,385.42Zm7.14,9.46L114,394.87l-3.58-3.57,3.58-3.57ZM114,397.19l3.56,3.57L114,404.33l-3.58-3.57Zm-1.17,8.3-3.57,3.57-3.57-3.57,3.58-3.58Zm-8.3-1.16L101,400.76l3.56-3.57,3.58,3.57Zm-1.15,1.16-3.57,3.57-3.57-3.57,3.57-3.58Zm-4.73,4.72-2.31,2.32H93.84l-2.32-2.32,3.58-3.57Zm-3.57-5.88-3.58-3.57,3.58-3.57,3.57,3.57Zm0-9.46-3.58-3.57,3.58-3.57,3.57,3.57Zm4.35-20.95h.75l3.2,3.19-3.57,3.58-3.57-3.58Zm3.07,0h4.08l-2,2Zm6.38,0h.76l3.19,3.19-3.57,3.58-3.57-3.58Zm7.15,0-2,2-2-2Zm3.07,0,2.8,2.8-.07.85-3.11,3.12-3.57-3.58,3.2-3.19Zm3,0-.06.66h0l-.66-.66Zm-.77,9.41-1.48-1.49,1.75-1.75Zm-.71,8.74-.77-.77.91-.92h0l-.14,1.69Zm-.49,6.09-1.44,1.44L115.17,396l3.57-3.57,1.76,1.76Zm-.21,2.67-.07-.07.08-.08v.15Zm-.62,7.62-.61.6-3.57-3.56,3.57-3.58L119.8,403l-.45,5.48Zm-1.77,4.08,1.16-1.16.35.34-.07.82Zm-2.31,0h-2.51l-2.32-2.32,3.58-3.57,3.56,3.57Zm-7.15,0,1.16-1.16,1.16,1.16Zm-4.83,0-2.3-2.32,3.56-3.57,3.58,3.57-2.32,2.32Zm-4.63,0,1.17-1.16,1.16,1.16ZM90,411.71l.34-.34,1.16,1.16H90.09ZM89.32,403l1.05-1.06,3.57,3.58-3.57,3.56-.61-.6Zm-.19-2.3.09.09-.08.07v-.16Zm-.53-6.45,1.77-1.76L93.94,396l-3.57,3.57-1.45-1.44Zm-.31-3.84.93.92-.79.78Zm-.83-10.3,1.76,1.76-1.5,1.5-.26-3.26Z" style="fill:#fff"></path></g><rect x="82.96" y="370.82" width="43.19" height="4.55" rx="1.64" style="fill:#228BE6"></rect><rect x="86.08" y="411.72" width="36.96" height="4.55" rx="1.64" transform="translate(209.11 827.98) rotate(180)" style="fill:#228BE6"></rect></g></svg>
